/* XPM */
static char *_c256972eb1c42a59db54c691154477efNNHZFBk2UAK3mJx[] = {
/* columns rows colors chars-per-pixel */
"50 50 166 2 ",
"   c #000000",
".  c #0B0000",
"X  c #000A00",
"o  c #09090A",
"O  c #130000",
"+  c #1D0000",
"@  c #001300",
"#  c #001A00",
"$  c #131315",
"%  c #230000",
"&  c #290000",
"*  c #330000",
"=  c #3C0000",
"-  c #221316",
";  c #002500",
":  c #142B17",
">  c #1F1F23",
",  c #2F1C21",
"<  c #202025",
"1  c #29332E",
"2  c #313138",
"3  c #420000",
"4  c #4C0100",
"5  c #4C0E00",
"6  c #540000",
"7  c #5B0000",
"8  c #5C090A",
"9  c #660000",
"0  c #6A0000",
"q  c #730000",
"w  c #7C0000",
"e  c #762025",
"r  c #004100",
"t  c #005D00",
"y  c #006600",
"u  c #007200",
"i  c #147117",
"p  c #247929",
"a  c #4C4000",
"s  c #4C7200",
"d  c #51505C",
"f  c #714049",
"g  c #555461",
"h  c #765E6C",
"j  c #637070",
"k  c #830000",
"l  c #8B0000",
"z  c #940000",
"x  c #9B0000",
"c  c #990800",
"v  c #961518",
"b  c #A30000",
"n  c #AD0000",
"m  c #B20000",
"M  c #BB0000",
"N  c #992500",
"B  c #B8343C",
"V  c #C30000",
"C  c #CC0000",
"Z  c #D30101",
"A  c #DB0000",
"S  c #E30000",
"D  c #EC0000",
"F  c #F50100",
"G  c #FF0101",
"H  c #F50B00",
"J  c #FE0708",
"K  c #FE0B0C",
"L  c #ED1200",
"P  c #E51A00",
"I  c #FD0E10",
"U  c #E21518",
"Y  c #FD1214",
"T  c #FC1619",
"R  c #FB1A1E",
"E  c #DD2200",
"W  c #D52B00",
"Q  c #C83700",
"!  c #C33C00",
"~  c #FB1D22",
"^  c #D8252B",
"/  c #EE2227",
"(  c #FB2025",
")  c #FA252B",
"_  c #F9282E",
"`  c #F92C33",
"'  c #F83037",
"]  c #F7363E",
"[  c #F8343C",
"{  c #994100",
"}  c #B94600",
"|  c #9B6300",
" . c #916E00",
".. c #817E00",
"X. c #BA3942",
"o. c #F73A43",
"O. c #F63F49",
"+. c #B46574",
"@. c #F6424C",
"#. c #F54651",
"$. c #F54A56",
"%. c #F44E59",
"&. c #F4505D",
"*. c #D75664",
"=. c #F35563",
"-. c #F35866",
";. c #F25D6C",
":. c #E16473",
">. c #F16473",
",. c #F06A7B",
"<. c #00A300",
"1. c #00B300",
"2. c #14B617",
"3. c #24B929",
"4. c #7A8600",
"5. c #679800",
"6. c #4CA900",
"7. c #57A800",
"8. c #46BA00",
"9. c #3EC200",
"0. c #33CC00",
"q. c #24DB00",
"w. c #00EB00",
"e. c #18E800",
"r. c #00FF00",
"t. c #0BF804",
"y. c #0EFD10",
"u. c #17FC1A",
"i. c #20E000",
"p. c #26F92C",
"a. c #639A70",
"s. c #43F54C",
"d. c #63C570",
"f. c #5AF166",
"g. c #63F070",
"h. c #808000",
"j. c #706F80",
"k. c #EF6F81",
"l. c #F06F80",
"z. c #EF7385",
"x. c #EF7689",
"c. c #EE7B8D",
"v. c #ED7F93",
"b. c #71EE81",
"n. c #8C8A9F",
"m. c #B295AB",
"M. c #A1A6B8",
"N. c #A1BCB8",
"B. c #ED8296",
"V. c #EC8599",
"C. c #EB8DA3",
"Z. c #EA95AC",
"A. c #E99AB2",
"S. c #E89EB6",
"D. c #E8A3BC",
"F. c #A1D1B8",
"G. c #9DE7B3",
"H. c #A1E7B8",
"J. c #E8A7C1",
"K. c #E7AAC4",
"L. c #E6B1CC",
"P. c #E5BBD8",
"I. c #C2C0DD",
"U. c #E3C8E7",
"Y. c #E1D6F7",
"T. c #E0DCFE",
/* pixels */
"                                                                                                    ",
"                                                                                                    ",
"                                                                                                    ",
"                                              X                                                     ",
"                                            o $ > 2 < $                                             ",
"                                            $ 2 d j.g 2 o                                           ",
"                                            > d n.I.n.g $                                           ",
"                        X @ # # # # # # # # 1 j M.T.M.j : # # # # # # # @ @ X                       ",
"                      X ; r u y y y y y y y p a.N.T.N.a.i y y y y y y y t r ;                       ",
"                      X ; u 1.1.1.1.1.1.1.1.3.d.F.T.F.d.2.1.1.1.1.1.1.1.<.u r                       ",
"                      @ t <.r.r.r.r.r.r.r.r.p.g.H.T.H.g.u.r.r.r.r.r.r.r.w.<.t X                     ",
"                O & 3 5 a s 6.9.q.e.r.r.r.r.u.s.b.G.b.s.y.r.r.r.r.e.q.8.6.s a 4 = & O               ",
"                % 6 k c N { | 4.6.i.r.r.r.r.y.p.s.f.s.p.t.r.r.r.r.q.6...| { N x w 4 %               ",
"                = w Z F F F H ! h.0.r.r.r.r.r.r.r.t.t.r.r.r.r.r.r.9.h.W H F F F V k *               ",
"        . O % * 9 x S G G G G W | 7.0.0.0.0.0.e.t.r.t.e.0.0.0.0.0.5.| P J I ~ ` ^ v 8 * % O .       ",
"        . * 6 k x V D G G G G P Q | ..h.....5.8.q.r.q.8.4.....4...| ! L K _ #.k.*.X.v w 7 & .       ",
"        + 7 z A S F F G G G G F L P E E E E } 4.9.r.8.4.Q E E E E P L F I #.c.P.A.:.^ Z x 6 .       ",
"        + 9 n G J K Y Y K K G G G G G G G G E | 7.e.7.| P G K I T Y K J Y #.B.P.S.,.` F n 9 .       ",
"        + 9 n G T ` $.&.o.( G G G G G G G G P }  .5. .} H K ) o.-.@.` I K ` -.B.,.@.R F n 9 .       ",
"        + 9 n G _ &.V.C.>.o.J G G G G G G G H E Q } Q E H Y o.,.A.x.$.Y J T ` @.[ ) I F n 0 .       ",
"        + 9 n G [ z.P.U.C.&.J G G G G G G G G G G G G G G ~ -.Z.T.J.,.( G G G G G G G F n 9 .       ",
"        % 9 n G _ &.V.C.>.] G K ( [ O.` ~ G K ~ ' @.` ~ J Y O.,.A.x.$.T G G G G G G G F n 9 O       ",
"        + 9 n G T ` %.=.] ( G R @.,.v.;.[ J T o.>.V.;.o.K K ( O.=.@.` K G G G G G G G F n 9 .       ",
"        + 9 n G G G J J J J G ` >.K.U.Z.=.K ( ;.A.Y.A.;.T G G J J J J G G G G G G G G F n 9 .       ",
"        + 9 n G G G G G G G G ( =.C.K.x.#.K ~ %.v.L.B.%.Y G G G G K T _ _ ~ Y G G G G F n 9 O       ",
"        % 9 n G G G G G G G G T [ -.,.%.` J Y ' &.,.&.' K G G G G ~ o.;.>.#._ G G G G F n 9 .       ",
"        + 9 n G G G G G G G G J I T ~ Y K G J K T ~ T K G G G G G ` >.D.L.c.@.J G G G F n 9 .       ",
"        + 7 x S D F F G J I T Y K J G G G G G K Y T I K G G G G G ` ,.K.P.v.#.J F F D A x 7 .       ",
"        O = 0 z m C F K ~ o.-.#.` Y G G G G K _ @.-.O._ K G G G G ( #.z.c.=.' G D C n z 0 = .       ",
"        . + * 4 w n S K o.>.Z.c.&.( G G G G R #.l.A.l.@.I G G G G I ( o.O.` R G A n q 4 * +         ",
"                = k A Y &.C.T.L.x.` G G G G ( >.S.T.S.>.Y G G G G G G G G G G G C k *               ",
"                = k A K [ >.Z.c.&.~ G G G G R #.l.A.k.#.I G G G G G G G G G G G C k *               ",
"                = k A J ( o.=.#.` Y G G G G I _ @.=.O._ K G G G G G G G G G G G C k *               ",
"                3 k A G G J J J J G G G G G G G J J J G G G G G G G G G G J G G C k *               ",
"                * 0 n Z A D G G G G G I R _ ) R K G G G G J Y ~ ` / U Z C C C C b 0 &               ",
"                + 3 0 l n Z G G G G J ( @.,.;.O.~ G G G G K ` $.,.*.B v k w k k 0 3 +               ",
"                . O + * q n F G G G J O.z.P.D.,.] G G G G T %.B.P.m.h , & % % % + O .               ",
"                      O 6 z S D F F K O.x.P.J.z.o.G G G G R &.V.U.m.h <                             ",
"                      . * 9 z n C S J ` %.v.,.$.) G G G G Y [ ;.V.+.f -                             ",
"                      . + & 4 q b A G Y _ O.o.) Y G G G G J R ` @.B e +                             ",
"                              * w C G G G G G G G G G G G G G G G V w %                             ",
"                              % 7 l m m m m V Z D G D Z M m m m m k 6 +                             ",
"                              O & 6 9 9 9 9 w n Z G Z n q 9 9 9 9 4 & O                             ",
"                                  . . . . . & q M G M q + . . . . . .                               ",
"                                            % 7 z C z 7 O                                           ",
"                                            O * 7 w 7 * .                                           ",
"                                            . . + % + .                                             ",
"                                                                                                    ",
"                                                                                                    ",
"                                                                                                    "
};
