/* XPM */
static char *aace596c3ae74a4f844f752548240009aBf9DVCzu68qqeKm[] = {
/* columns rows colors chars-per-pixel */
"50 50 61 1 ",
"  c black",
". c #040400",
"X c #0B0B00",
"o c #0D0D00",
"O c #131300",
"+ c #151500",
"@ c #1A1A00",
"# c #1E1E00",
"$ c #202000",
"% c #272700",
"& c #2A2A00",
"* c #2E2E00",
"= c #333300",
"- c #363600",
"; c #383800",
": c #3D3D00",
"> c #414100",
", c #444400",
"< c #484800",
"1 c #4D4D00",
"2 c #505000",
"3 c #545400",
"4 c #5A5A00",
"5 c #5E5E00",
"6 c #636300",
"7 c #656500",
"8 c #6A6A00",
"9 c #6E6E00",
"0 c #727200",
"q c #777700",
"w c #7B7B00",
"e c #7D7D00",
"r c #838300",
"t c #848400",
"y c #888800",
"u c #8C8C00",
"i c #939300",
"p c #959500",
"a c #989800",
"s c #9E9E00",
"d c #A3A300",
"f c #A5A500",
"g c #AAAA00",
"h c #AEAE00",
"j c #B2B200",
"k c #B4B400",
"l c #BBBB00",
"z c #BCBC00",
"x c #C2C200",
"c c #C5C500",
"v c #C9C900",
"b c #CDCD00",
"n c #D2D200",
"m c #D6D600",
"M c #D9D900",
"N c #DCDC00",
"B c #E1E100",
"V c #E6E600",
"C c #E9E900",
"Z c #EEEE00",
"A c #F5F500",
/* pixels */
"                                                  ",
"                                                  ",
"                                                  ",
"                                                  ",
"                                                  ",
"                                                  ",
"                                                  ",
"                                                  ",
"                                                  ",
"                 XooX.       .XOo.                ",
"                o*35:@       #;71*.               ",
"                @4flw=       ;wvs4X               ",
"          .XOOX @7xMp<+o. Xo+2pVj7X               ",
"          +;64;oO>wirq7,$ $,8qti0>.               ",
"          &9xj9@.O$;9gby, ,ynf9=$+.               ",
"          *qnct=+o.O5hNp< <iVf5    .o++o.         ",
"          #<ryeq7:+X;9y4* *5u7;    +;85;o         ",
"          XO$>ecxw& o#$@o o+%@O    *0vl0@         ",
"             %9xce%             Xo#>rnzq#         ",
"             +>ww1@             @>0weyq,O         ",
"             .O@@O.             -eMle*+O          ",
"       X+$$%$#O                 -enh8O            ",
"       #,qwww7>o                $<e8:o            ",
"       -rMCVVxw#                .o@Oo             ",
"       =wbmmmk9@                   .+&&%%%+X      ",
"       #,weee9>O                   @>qree0,+      ",
"       .XOOO+OX                    =wMZCZbr&      ",
"             .+&&@X                &9znnnlq&      ",
"             +:0q<@                @>0www8,+      ",
"             %0nnt&                 XoooooX.      ",
"          X#*1wlk0%             X#=&+.            ",
"          @,rtrw7>+             $1r9>o            ",
"          =eBbt&X.              :yCxq+            ",
"          %8kg7@   .+*;$O O%-&+ =9zge,*#.         ",
"          +:75;o   X;8y5* *4u8;.@>9qeuw<+         ",
"           .XX.    +7lZs1 1sAj7. ..-rVbr#         ",
"                .#=,0sze: :exs0:=@ &7jd7@         ",
"                O>qirq8,$ %,8qri0>X+;65;o         ",
"                #9bVa>...  ..<aAz0X  ..           ",
"                @3ah0*       -0lu3.               ",
"                o*35:@       $:71*.               ",
"                   .                              ",
"                                                  ",
"                                                  ",
"                                                  ",
"                                                  ",
"                                                  ",
"                                                  ",
"                                                  ",
"                                                  "
};
