/* XPM */
static char *_1075979209b4b78886c2d1683800856qtnKZKxokfIKR7fA[] = {
/* columns rows colors chars-per-pixel */
"50 50 150 2 ",
"   c #010000",
".  c #0B0000",
"X  c #140000",
"o  c #1B0000",
"O  c #230000",
"+  c #2A0000",
"@  c #320000",
"#  c #3B0000",
"$  c #430000",
"%  c #4C0000",
"&  c #550000",
"*  c #5C0000",
"=  c #640000",
"-  c #6C0000",
";  c #740000",
":  c #7B0000",
">  c #830000",
",  c #8A0000",
"<  c #930000",
"1  c #9B0000",
"2  c #A40000",
"3  c #AC0000",
"4  c #B20000",
"5  c #BC0000",
"6  c #C30000",
"7  c #CC0000",
"8  c #D50000",
"9  c #DC0000",
"0  c #E30000",
"q  c #EB0000",
"w  c #F50000",
"e  c #FF0000",
"r  c #F6010A",
"t  c #F90209",
"y  c #FD0A0C",
"u  c #EB0317",
"i  c #E7041C",
"p  c #FD0F11",
"a  c #FC1114",
"s  c #FB1518",
"d  c #FB1A1E",
"f  c #D6062F",
"g  c #D9062C",
"h  c #DD082B",
"j  c #CC093C",
"k  c #D10735",
"l  c #FB1E23",
"z  c #FB2126",
"x  c #FA2429",
"c  c #F9292F",
"v  c #F82D34",
"b  c #F83037",
"n  c #F7353D",
"m  c #F8333B",
"M  c #BE0B4B",
"N  c #B50B55",
"B  c #B10C5A",
"V  c #94117C",
"C  c #A40E69",
"Z  c #F73C45",
"A  c #F6424C",
"S  c #EE4758",
"D  c #F54752",
"F  c #F44C56",
"G  c #F44E5A",
"H  c #F4515D",
"J  c #D34371",
"K  c #F35562",
"L  c #F35966",
"P  c #F25F6E",
"I  c #F06778",
"U  c #F06B7B",
"Y  c #77159E",
"T  c #6F15A6",
"R  c #6816AD",
"E  c #7030BF",
"W  c #7831B9",
"Q  c #361EE8",
"!  c #2920F6",
"~  c #2222FF",
"^  c #2B28FD",
"/  c #3224F1",
"(  c #3129F7",
")  c #3331FD",
"_  c #4B1BCF",
"`  c #531AC7",
"'  c #4B29DD",
"]  c #4634EE",
"[  c #6D48DB",
"{  c #744CD7",
"}  c #4944F9",
"|  c #4B4AFF",
" . c #5453FF",
".. c #6761FA",
"X. c #6867FF",
"o. c #7266F4",
"O. c #86128B",
"+. c #901280",
"@. c #811392",
"#. c #B53D88",
"$. c #8A36AB",
"%. c #AF6ABB",
"&. c #B96FB6",
"*. c #EF7485",
"=. c #EF7688",
"-. c #EE7A8D",
";. c #ED7D91",
":. c #CB78AE",
">. c #8756CE",
",. c #8453D0",
"<. c #8274F2",
"1. c #ED8195",
"2. c #E6839D",
"3. c #EC869B",
"4. c #EC899F",
"5. c #EB8FA5",
"6. c #EA94AB",
"7. c #EA9CB3",
"8. c #E8A6BF",
"9. c #8281FF",
"0. c #8886FF",
"q. c #9391FF",
"w. c #9E9CFF",
"e. c #A994EC",
"r. c #B39DEA",
"t. c #A19FFF",
"y. c #B2AFFF",
"u. c #B5B3FF",
"i. c #B8B6FF",
"p. c #BBB9FF",
"a. c #DEBCDF",
"s. c #E7ACC6",
"d. c #E8A9C3",
"f. c #E6B1CC",
"g. c #E5B5D2",
"h. c #E4BDDA",
"j. c #C5ABE8",
"k. c #E4C1DE",
"l. c #C8C5FF",
"z. c #CDCAFF",
"x. c #D0CDFF",
"c. c #D5D2FF",
"v. c #DCD6FB",
"b. c #DCD9FF",
"n. c #E3C5E4",
"m. c #E3C8E7",
"M. c #E2CCEC",
"N. c #E1D4F4",
"B. c #E0D7F9",
"V. c #E0DCFE",
/* pixels */
"                                                                                                    ",
"                                      .   . .     . . . .   .                                       ",
"                                  . o @ # # # # # # # # # # + X .                                   ",
"                                  o $ ; , , > , > , , > , > = # .                                   ",
"                                  + ; 5 9 0 0 9 9 0 9 0 0 9 3 * X                                   ",
"                      . X O O O O % < 8 e e e e e e e e e e 7 : @ O O O o . .                       ",
"                    . O % ; ; : : < 5 q e e e e e e e e e e 9 3 > : : : = $ X                       ",
"                    . $ > 7 8 8 8 0 q e e e e e e e e e e e w q 9 8 8 8 4 - O                       ",
"                . X O = 3 w e e e e e e e e e e e e e e e e e e e e e e 8 , $ o . .                 ",
"              . O $ = < 6 w e e e e e e e e e e e e e e e e e e e e e e q 4 : * # o                 ",
"              X $ ; 4 7 0 e e e e e e e e e e e e e e e e e e e e e e e w 8 6 2 ; +                 ",
"          . . + - 3 w e e e e e e e e e e e e e e e e e e e e e e e e e e e e q 2 % o . .           ",
"        . O % - < 6 e e e e e e e e e e e e e e e e e e e e e e e e e e e e e w 5 > & # O           ",
"        . $ > 3 7 0 e e e e e e e e e e e e e e e e e e e e e e e e e e e e e w 9 6 1 - #           ",
"        X = 5 w e e e e e e e e e e e e e e e e e e e e e e e e e e e e e e e e e e q 2 & .         ",
"        X = 6 e e e e a x Z Z Z Z b l y e e e e e e e e e e p x n A Z A b x p e e e 0 2 & .         ",
"        X = 6 w e e e c L 1.4.4.4.U A d e e e e e e e e e e x K 1.3.3.3.*.D s e e e 0 2 & .         ",
"        X = 6 w e e y A 1.m.M.N.M.d.I x e e e e e e e e e e n -.k.M.N.M.s.U x e e e q 2 &           ",
"        X = 6 t s x n U 8.N.V.V.V.h.4.H b l y e e e e s x m P 7.N.V.V.V.k.5.H b z p 0 2 & .         ",
"        X = 5 y c F =.6.g.N.V.V.V.m.d.3.U A s e e e y c F *.5.f.B.V.V.V.M.s.3.U D z 0 2 & .         ",
"        X = 6 s D 1.h.n.N.V.V.V.V.B.N.n.s.U x e e e y A ;.h.m.N.V.V.V.V.B.N.n.f.=.b 0 2 * .         ",
"  . X + $ > 7 s H 5.B.V.V.V.V.V.V.V.V.V.n.-.c y e e a F 5.B.V.V.V.V.V.V.V.V.V.m.3.m q 4 ; @ O .     ",
"  X # - , 4 0 s H 5.B.V.V.V.V.V.V.V.V.V.n.-.c e e e a F 5.B.V.V.V.V.V.V.V.V.V.M.3.m w 8 3 : * @ .   ",
"  O - 5 0 q w s F 5.V.V.V.V.V.b.V.V.V.V.m.-.c e e e a G 5.B.V.V.V.V.V.V.V.V.V.M.3.m t w q 8 1 & .   ",
"  + : 8 e e e s G 5.v.b.c.z.l.z.z.x.c.b.n.-.v e e e a F 5.B.b.c.x.z.z.z.z.c.b.M.3.m e e e w 4 * .   ",
"  + : 8 e e e s H 5.v.l.y.q.q.q.q.t.p.c.n.-.v e e e a F 5.B.z.u.q.q.q.q.w.i.c.m.3.m y e e w 4 = .   ",
"  + : 8 e e e s G 5.v.u.9. .| | | X.q.z.n.-.c e e e a F 5.v.p.0. . .| | ..q.z.M.3.m e e e w 4 * .   ",
"  + : 8 e e e s D 1.a.e...( ~ ~ ~ } <.j.f.U c e e e a A 1.k.r.o.) ~ ~ ~ } o.j.g.=.b t e e e 4 * .   ",
"  O : 8 e e e y b L 2.%.[ ^ ~ ~ ~ ] >.:.-.G d e e e y v L 3.&.{ ( ~ ~ ~ ] ,.:.;.K z e e e w 4 * .   ",
"  + : 8 e e e y d b S #.E ! ~ ~ ~ ' $.J A v p e e e e d v D J W / ~ ~ ~ Q $.J D v a e e e w 4 * .   ",
". O : 8 e e e e e e r M Y Q ! ! ! ` V h e e e e e e e e e e M Y Q ! ! ! _ +.h e e e e e e w 4 * .   ",
"  + : 8 e e e e e e t k C T R R R O.N i e e e e e e e e e e h C Y R R R @.B i e e e e e e e 4 * .   ",
"  + : 8 e e e e e e e i j N B B B M g r t e e e e e e e e e u k N B B B M f r e e e e e e e 3 * .   ",
"  + : 8 e e e e e e e e t r r r r t e e e e e e e e e e e e e t t r r r t t e e e e e e e w 4 * .   ",
"  O : 8 e e e e e e e e e e e e e e e e e e e e e e e e e e e e e e e e e e e e e e e e e w 4 * .   ",
". + : 8 e e e e e e e e e e e e e e e e e e e e e e e e e e e e e e e e e e e e e e e e e w 4 = .   ",
"  O : 8 e e e e e e e e e e e e e e e e e e e e e e e e e e e e e e e e e e e e e e e e e e 3 * .   ",
"  + : 8 e e e e e e e e e e e e e e e e e e e e e e e e e e e e e e e e e e e e e e e e e w 4 * .   ",
"  + : 8 e e e e e e e e e e e e e e e e e e e e e e e e e e e e e e e e e e e e e e e e e w 4 * .   ",
"  + : 8 e e e e e e e e e e e e e e e e e e e e e e e e e e e e e e e e e e e e e e e e e w 4 = .   ",
"  O : 8 e e e e w q 0 q w e e e e e e e e w q 9 0 9 0 q w e e e e e e e w w q 0 q e e e e e 3 * .   ",
". + : 8 e e e w 8 4 < 4 8 w e e e e e e w 6 2 , , , < 4 8 e e e e e e e q 6 1 < 4 0 e e e w 4 * .   ",
"  O : 8 e e e q 4 ; # - 4 w e e e e e e q 2 & + + + # ; 4 e e e e e e e 9 1 % $ > 7 e e e e 4 * .   ",
"  + ; 8 e w q 7 < & . $ , 8 q w e e e e 0 , @     . X * 2 w e e e e w q 5 ; O X * 3 0 q w w 3 = .   ",
"  + : 8 e 8 4 < = # . @ = < 4 8 w e e e q < + .     X & 2 w e e e q 7 3 > & o . $ : 2 6 9 w 3 * .   ",
"  + : 8 q 5 : % @ o   X @ % ; 3 q e e e 0 , +       X & 2 e e e e 8 2 = $ + . . o # * , 6 w 4 * .   ",
"  O ; 6 8 < # .           . # : 7 q q q 8 : + .     X & < q q q q 5 : +         .   o & 1 9 2 * .   ",
"  o % , 1 = O               O * < 2 2 2 < * o       . @ - 2 2 2 2 > % o             X # - 1 ; # .   ",
"  . + % & @ X .             X + % * & & % + X       . o # & & & & $ + .             . O @ & # O     ",
"  .                               .   . .                 . .     .                       .         "
};
