/* XPM */
static char *c7d502e5ed9a4e9cf7137d8b0958e8b2ontKPbjYpWSSVJiY[] = {
/* columns rows colors chars-per-pixel */
"50 50 170 2 ",
"   c #010000",
".  c #0C0000",
"X  c #130000",
"o  c #1C0000",
"O  c #230000",
"+  c #2C0000",
"@  c #330000",
"#  c #3B0000",
"$  c #3F080A",
"%  c #3C191D",
"&  c #392B31",
"*  c #420000",
"=  c #4C0000",
"-  c #530000",
";  c #5B0000",
":  c #640000",
">  c #6D0000",
",  c #62090B",
"<  c #730000",
"1  c #7B0000",
"2  c #150940",
"3  c #121240",
"4  c #232340",
"5  c #333340",
"6  c #530840",
"7  c #830000",
"8  c #8D0000",
"9  c #910000",
"0  c #9C0000",
"q  c #941417",
"w  c #A40000",
"e  c #AB0000",
"r  c #B50000",
"t  c #BD0000",
"y  c #A21519",
"u  c #971C20",
"i  c #C30000",
"p  c #CA0000",
"a  c #D30000",
"s  c #DC0000",
"d  c #E50000",
"f  c #EB0000",
"g  c #F40000",
"h  c #FF0000",
"j  c #F70109",
"k  c #FE0708",
"l  c #FE0B0C",
"z  c #EC0417",
"x  c #E6041E",
"c  c #FC0E11",
"v  c #FC1215",
"b  c #F1101E",
"n  c #FC1619",
"m  c #FB191E",
"M  c #DB0529",
"N  c #C9083C",
"B  c #FB1F23",
"V  c #DE2025",
"C  c #D63038",
"Z  c #E72024",
"A  c #FA252B",
"S  c #F92C33",
"D  c #F8333A",
"F  c #F8343C",
"G  c #9C0840",
"H  c #BB0F53",
"J  c #8E3C45",
"K  c #BD3B45",
"L  c #970F78",
"P  c #981078",
"I  c #A60D67",
"U  c #B02A7B",
"Y  c #C00948",
"T  c #F53B45",
"R  c #F73B44",
"E  c #886675",
"W  c #F6434D",
"Q  c #F54A56",
"!  c #F54B57",
"~  c #F4515D",
"^  c #DE5E6C",
"/  c #C94178",
"(  c #E85767",
")  c #F35663",
"_  c #F35966",
"`  c #F35D6B",
"'  c #E75F78",
"]  c #DD6878",
"[  c #F16675",
"{  c #F06A7A",
"}  c #1B1497",
"|  c #3C1397",
" . c #2A2A97",
".. c #701497",
"X. c #5E18B8",
"o. c #701AAA",
"O. c #535297",
"+. c #797897",
"@. c #271EEB",
"#. c #3422EC",
"$. c #2222FF",
"%. c #2929FF",
"&. c #3329F5",
"*. c #3635FE",
"=. c #4F1ACA",
"-. c #501BCA",
";. c #441BD7",
":. c #6C37CA",
">. c #6A43D9",
",. c #4242EB",
"<. c #4747FF",
"1. c #4A4AFF",
"2. c #5656FF",
"3. c #6856EE",
"4. c #6866FF",
"5. c #6C6BFF",
"6. c #7B7AFF",
"7. c #891286",
"8. c #B24A98",
"9. c #AE63B4",
"0. c #F06F80",
"q. c #EF7183",
"w. c #EE7B8E",
"e. c #A36ECA",
"r. c #AB7FD5",
"t. c #EC869B",
"y. c #EB899E",
"u. c #D59EB7",
"i. c #EB8DA3",
"p. c #EA95AB",
"a. c #E49BB5",
"s. c #E99BB3",
"d. c #E8A4BD",
"f. c #8180EB",
"g. c #8382FF",
"h. c #8D8BFF",
"j. c #9693FF",
"k. c #9E9CFF",
"l. c #A990E7",
"z. c #BDBBEB",
"x. c #A9A6FF",
"c. c #ACAAFF",
"v. c #B2AFFF",
"b. c #B4B2FF",
"n. c #BCBAFF",
"m. c #D7A1CA",
"M. c #E8A7C0",
"N. c #E7ABC5",
"B. c #E5AFCA",
"V. c #E6B2CE",
"C. c #E6B4D0",
"Z. c #E5BBD8",
"A. c #E4C1DE",
"S. c #DFC6E9",
"D. c #C7C4FF",
"F. c #C9C6FF",
"G. c #CDCAFF",
"H. c #D1CDFF",
"J. c #DED3F6",
"K. c #D5D2FF",
"L. c #D9D6FE",
"P. c #DDDAFF",
"I. c #E4C4E3",
"U. c #E2C8E7",
"Y. c #E2CAEA",
"T. c #E2CFF0",
"R. c #E1D3F4",
"E. c #E1D7F8",
"W. c #E0DCFD",
"Q. c #E0DDFF",
/* pixels */
"                                                                                                    ",
"                                        .     . .   .     .                                         ",
"                                    o O * * # * # * * * * * @ O .                                   ",
"                                    + - 7 8 8 8 8 8 8 8 8 8 < * X                                   ",
"                                  X * 8 s f d f f d f d d d t < O                                   ",
"                        o O # # # * < r g h h h h h h h h h s 0 - # # # @ O .                       ",
"                        + ; 7 8 7 9 e a g h h h h h h h h h f i 0 7 8 8 1 = o                       ",
"                        = 0 s f f f g g h h h h h h h h h h g g f f f f p 7 @                       ",
"                  . o @ > t g h h h h h h h h h h h h h h h h h h h h h d w ; O o .                 ",
"                  @ ; 7 e a g h h h h h h h h h h h h h h h h h h h h h f p 0 < = O                 ",
"                  - 0 s f g h h h h h h h h h h h h h h h h h h h h h h h g d i 7 #                 ",
"            X o @ < i h h h h l n A A A A B v h h h h h h h h h h k v A A A A V y , O o .           ",
"          . + - 1 e a h h h k B R [ [ [ [ ~ S k h h h h h h h h h c D _ { { { ( K u > * O           ",
"          X - 9 p d g h h h k R q.N.C.C.V.y.! l h h h h h h h h h m ) s.V.C.C.a.] C i 1 @           ",
"          o ; e h h h h l n A _ p.R.P.W.W.V.q.S m v k h h h k v A F w.A.P.P.W.I.i.) Z q $           ",
"          o : r h h h h A W { y.V.E.W.W.W.I.p.{ ~ D l h h h v D ) q.d.R.P.Q.P.Y.N.i.^ J %           ",
"          X : r h h h h F q.d.Z.Y.W.W.W.W.R.A.B.t.~ n h h h A ) p.V.I.E.Q.Q.Q.E.U.Z.u.E &           ",
"          o : e h h h k ! p.R.W.W.W.P.L.G.G.G.G.m.' m h h h A 0.A.Q.Q.Q.P.L.G.G.G.G.z.+.5           ",
"          o : r h h h k W p.R.W.W.P.D.c.h.h.h.h.e./ b h h h A q.A.Q.W.W.K.n.k.h.h.h.f.O.4           ",
"          o : r h h h k W p.R.W.W.L.b.g.1.<.<.<.:.U x h h k A q.A.Q.W.W.G.k.4.1.<.<.,. .3           ",
"        . O > r h h h k W p.R.W.W.L.x.5.%.$.$.$.-.P x h h h A q.A.W.W.W.F.h.1.$.$.$.@.} 2   .       ",
"    . + = < w p h h h k W p.R.P.W.L.x.5.%.$.$.$.=.L x h h h A q.A.W.W.W.F.h.1.$.$.$.@.| 6 ; # o     ",
"    o = 8 p s f h h h k ! p.R.W.W.L.x.5.%.$.$.$.=.L x h h h S q.A.W.W.W.D.h.1.$.$.$.@...G t 1 @     ",
"    o : r g h h h h h k R t.A.R.E.L.c.6.*.*.&.#.X.I x h h h A [ V.Y.R.W.F.j.2.*.&.#.;.7.N g w * .   ",
"    o : t g h h h h h k S ` i.d.A.L.n.j.4.3.:.o.7.H z h h h m ! w.s.V.R.H.x.6.3.>.o...I M g w *     ",
"    o : r h h h h h h h n S W q.d.J.H.n.x.r.8.H N M j h h h l A R ~ i.U.L.F.v.l.9.8.Y M z g e *     ",
"    o : t g h h h h h h h h v W w.A.S.S.S.a.) c h h h h h h h h k A [ N.U.Y.U.B.q.R h h h g w * .   ",
"    o : r h h h h h h h h h k S ) t.i.i.i.{ R k h h h h h h h h h v W w.i.i.i.w.~ A h h h g w *     ",
"    O : t h h h h h h h h h h m D ! ! ! ! R B k h h h h h h h h h l A W ! ! ! W S n h h h g w * .   ",
"    o : r g h h h h h h h h h h h h h h k h h h h h h h h h h h h h h h h k h h h h h h h g w *     ",
"    o : t g h h h h h h h h h h h h h h h h h h h h h h h h h h h h h h h h h h h h h h h g w * .   ",
"    o : r h h h h h h h h h h h h h h h h h h h h h h h h h h h h h h h h h h h h h h h h g w *     ",
"    o : r h h h h h h h h h h h h h h h h h h h h h h h h h h h h h h h h h h h h h h h h g w * .   ",
"    o : t g h h h h h h h h h h h h h h h h h h h h h h h h h h h h h h h h h h h h h h h g w *     ",
"    o : r h h h h h h h h h h h h h h h h h h h h h h h h h h h h h h h h h h h h h h h h g w * .   ",
"    o : r h h h h h h h h h h h h h h h h h h h h h h h h h h h h h h h h h h h h h h h h g w *     ",
"    o : t h h h h h h h h h h h h h h h h h h h h h h h h h h h h h h h h h h h h h h h h g w * .   ",
"    o : t g h h h h h h h h h h h h h h h h h h h h h h h h h h h h h h h h h h h h h h h g w *     ",
"    o : r h h h h h g g h g h h h h h h h h g g g g g g h h h h h h h h h h g g g h h h h g w * .   ",
"    o : r h h h h d a i a f h h h h h h h f s i i t i p s g h h h h h h g d p p s g h h h g w *     ",
"    o : t h h h g p 0 < 0 a g h h h h h h s e 1 > > > 8 t f h h h h h h f i 7 7 e a h h h g w * .   ",
"    o : r g h h g e ; o ; e g h h h h h h p < O X X o = 7 s h h h h h h s 0 * @ < i h h h g w *     ",
"    o : r g f s p 7 # . * 7 i s f h h h h i > X       @ 7 s h h h g d a r < + o - 9 a d g g w * .   ",
"    o : r g p 0 < = O   O = < 0 p g h h h i : .       @ 7 s h h h f t 7 : * o X @ - 1 e s g w *     ",
"    o : t d w ; o .     . . O ; w g h h h i > X       @ 7 s h h h s 9 @ o .     . . O 1 i g w * .   ",
"    o - 9 t 7 *             . # 7 p a a a w - .       + > r a a a t > O             X - 0 p 7 #     ",
"    . @ ; < = O             . O = 1 1 7 1 : @ .       o * > 7 1 7 > * o             . @ ; 1 - O     ",
"      . o o o .               . X O O O o o X           X o O O O o X                 . o o o .     ",
"                                                                                                    ",
"                                                                                                    "
};
