/* XPM */
static char *ca884427f3d645adc48562bc4f2f9746gX54E5KuD0dX6E73[] = {
/* columns rows colors chars-per-pixel */
"50 50 162 2 ",
"   c #000000",
".  c #0A0000",
"X  c #140000",
"o  c #1B0000",
"O  c #12080A",
"+  c #0A0A13",
"@  c #110E10",
"#  c #240000",
"$  c #2C0000",
"%  c #330000",
"&  c #3C0000",
"*  c #450000",
"=  c #4D0000",
"-  c #540000",
";  c #5B0000",
":  c #580F12",
">  c #630000",
",  c #6B0000",
"<  c #730000",
"1  c #7B0000",
"2  c #720812",
"3  c #54272D",
"4  c #17165A",
"5  c #210C5A",
"6  c #2E2D5A",
"7  c #5A0C5A",
"8  c #50414C",
"9  c #840000",
"0  c #8B0001",
"q  c #940000",
"w  c #9C0000",
"e  c #A10000",
"r  c #AD0000",
"t  c #B20000",
"y  c #BB0000",
"u  c #A41D22",
"i  c #B41E22",
"p  c #AA262C",
"a  c #C30000",
"s  c #CC0000",
"d  c #D40000",
"f  c #DE0000",
"g  c #C60213",
"h  c #E40000",
"j  c #ED0000",
"k  c #F30000",
"l  c #FF0000",
"z  c #F4010A",
"x  c #FD0609",
"c  c #FE0A0C",
"v  c #E90316",
"b  c #FD1114",
"n  c #FC1619",
"m  c #FB1A1E",
"M  c #D9062C",
"N  c #DD082A",
"B  c #D20936",
"V  c #E9162C",
"C  c #FB1E23",
"Z  c #FA2126",
"A  c #F7252E",
"S  c #FA252B",
"D  c #F32D33",
"F  c #F82C33",
"G  c #F73038",
"H  c #F8343D",
"J  c #980C5A",
"K  c #BF0949",
"L  c #B80A50",
"P  c #9C0F71",
"I  c #91117E",
"U  c #AA0C61",
"Y  c #CF2657",
"T  c #F73740",
"R  c #F73B44",
"E  c #F43D49",
"W  c #C73F79",
"Q  c #9E4954",
"!  c #CC4F5A",
"~  c #F6424C",
"^  c #F54B57",
"/  c #F44D59",
"(  c #F4505C",
")  c #DF5D7E",
"_  c #F35562",
"`  c #F35866",
"'  c #F25E6D",
"]  c #F2606F",
"[  c #EF6E7F",
"{  c #F16372",
"}  c #F06C7D",
"|  c #3015A8",
" . c #2929A8",
".. c #7B1397",
"X. c #6015A8",
"o. c #7C24A7",
"O. c #5554A8",
"+. c #7D7BA8",
"@. c #3A1EE3",
"#. c #3724EC",
"$. c #2121FF",
"%. c #362BF4",
"&. c #3532FC",
"*. c #3E3EFF",
"=. c #5419C5",
"-. c #401CDC",
";. c #5A36DC",
":. c #783FC7",
">. c #7650DA",
",. c #4D4CFF",
"<. c #5554FF",
"1. c #6867FF",
"2. c #7B7AFF",
"3. c #801695",
"4. c #967A8D",
"5. c #C85B93",
"6. c #EE7384",
"7. c #EF7689",
"8. c #EE788B",
"9. c #EB7E93",
"0. c #C37AB8",
"q. c #936EDC",
"w. c #817FFE",
"e. c #E48296",
"r. c #ED8295",
"t. c #EC8599",
"y. c #EB8EA4",
"u. c #EB91A7",
"i. c #EA93AA",
"p. c #E89DB7",
"a. c #E8A4BD",
"s. c #BF96D7",
"d. c #8281FF",
"f. c #8E8CFF",
"g. c #908EFF",
"h. c #9897FF",
"j. c #9D9BFF",
"k. c #A5A3FF",
"l. c #AEABFF",
"z. c #B9B4FC",
"x. c #BEBBFF",
"c. c #C7A1DC",
"v. c #E7A8C1",
"b. c #E7AEC9",
"n. c #E6B2CD",
"m. c #E6B6D2",
"M. c #E3B8D5",
"N. c #E4BDDB",
"B. c #C0BEFF",
"V. c #E4C0DE",
"C. c #C4C2FF",
"Z. c #CDCAFF",
"A. c #D1CEFF",
"S. c #D4D1FF",
"D. c #DAD6FD",
"F. c #DFDCFF",
"G. c #E3C5E4",
"H. c #E3C8E6",
"J. c #E3CBEB",
"K. c #E1D3F3",
"L. c #E1D7F8",
"P. c #E0DDFE",
/* pixels */
"                                                                                                    ",
"                                                                                                    ",
"                                        . . . . . . . . . . .                                       ",
"                                    X $ * * = * * = * = = * & $ X                                   ",
"                                    $ ; q w w w w w w w w w 0 - o                                   ",
"                          . . . . X * 0 f k k k k k k k k k s 9 % . . . . .                         ",
"                        X $ * = = * 1 t k l l l l l l l l l h r > * * * * $ X                       ",
"                        $ > 0 q w w t d k l l l l l l l l l j s r w w w 9 ; #                       ",
"                        * w h k k k k k l l l l l l l l l l l k k k k k f q & .                     ",
"                  X $ * < t k l l l l l l l l l l l l l l l l l l l l l j t , & $ X                 ",
"                  % > q y f k l l l l l l l l l l l l l l l l l l l l l k d t 0 ; $                 ",
"                  = w h k k l l l l l l l l l l l l l l l l l l l l l l k l k d q =                 ",
"            X # & 2 i D D D F Z n x l l l l l l l l l x n S F F G F m x l l l h r < % o X           ",
"          . % ; 0 p ! 6.8.8.7.` H x l l l l l l l l l n R ] 8.8.7.} ~ n l l l k d r 9 ; $           ",
"          X - q h ~ e.N.H.H.V.i._ b l l l l l l l l l S ' a.H.H.H.m.[ Z l l l l k j d q *           ",
"          X : u H } a.D.P.P.P.b.7.R Z b x l l l x n S ^ 9.N.P.P.P.J.u.^ F Z c l l l j w -           ",
"          @ 3 Q 6.u.m.L.P.P.P.N.p.7.( H x l l l n R ' r.a.G.P.P.P.K.b.t.{ ~ m l l l j e =           ",
"          @ 8 4.M.G.K.P.P.P.P.K.H.M.y./ c l l l Z ` a.V.J.D.P.P.P.F.J.V.a.7.G l l l j e =           ",
"          @ 6 +.z.x.B.x.C.D.P.P.P.L.a.] b l l l A ) c.x.x.x.C.Z.D.P.P.P.H.t.H l l l j e -           ",
"          + 6 O.2.d.w.w.h.x.D.P.P.L.a.' b l l l V W q.2.d.w.g.l.S.P.P.P.H.t.H x l l j e =           ",
"          + 4  .,.*.*.*.1.k.D.P.P.L.a.] b l l l V I ;.*.*.*.<.f.C.P.P.P.H.t.H x l l j e -           ",
"      . o O 5 | $.$.$.$.<.h.A.P.P.L.a.] b l l l M I -.$.$.$.*.2.x.P.P.P.H.t.H l l l j r > # X .     ",
"    . $ - 2 7 | $.$.$.$.<.h.S.P.P.L.a.] b l l l M I -.$.$.$.*.2.x.P.P.P.H.t.R l l l k s e 1 - #     ",
"    X = w g J X.$.$.$.$.<.h.S.P.P.L.v.] b l l l M I -.$.$.$.*.2.B.P.P.P.H.t.H l l l l k h f q & .   ",
"    o ; r v L ..@.#.%.&.1.j.S.K.J.G.i._ b l l l N P =.-.#.&.,.d.C.F.K.J.n.7.G l l l l l l l r = .   ",
"    X ; r z B U 3.:.>.1.f.z.D.G.v.t.{ T x l l l v K 3.o.>.>.w.l.Z.K.n.u.7./ Z x l l l l l l r = .   ",
"    X ; t k v v B ! 0.z.B.S.L.b.7.R Z n l l l l z v M Y 5.s.B.Z.D.J.y./ A m x l l l l l l l r = .   ",
"    X ; r l k x x R 9.N.V.V.N.y._ b l l l l l l l l l A ` p.G.N.G.n.[ S x l l l l l l l l k r -     ",
"    X ; r l l l x F _ r.t.t.r.{ R x l l l l l l l l l m E } r.t.t.8.^ m l l l l l l l l l l r = .   ",
"    X ; r k l l l n S R R R R F m x l l l l l l l l l c C H R R R R Z c l l l l l l l l l l r = .   ",
"    o ; r l l l l l l l x l l l l l l l l l l l l l l l l l x l l l l l l l l l l l l l l l r = .   ",
"    X ; r k l l l l l l l l l l l l l l l l l l l l l l l l l l l l l l l l l l l l l l l l r = .   ",
"    X ; r k l l l l l l l l l l l l l l l l l l l l l l l l l l l l l l l l l l l l l l l l r = .   ",
"    X ; t l l l l l l l l l l l l l l l l l l l l l l l l l l l l l l l l l l l l l l l l l r = .   ",
"    X ; r k l l l l l l l l l l l l l l l l l l l l l l l l l l l l l l l l l l l l l l l l r - .   ",
"    o ; t k l l l l l l l l l l l l l l l l l l l l l l l l l l l l l l l l l l l l l l l l r = .   ",
"    o ; r k l l l l l l l l l l l l l l l l l l l l l l l l l l l l l l l l l l l l l l l k t - .   ",
"    X ; r l l l l l l l l l l l l l l l l l l l l l l l l l l l l l l l l l l l l l l l l l r = .   ",
"    X ; r l l l l l l l l l l l l l l l l l l l l l l l l l l l l l l l l l l l l l l l l l r = .   ",
"    X ; r k l l l k k k k k l l l l l l l l k k k k k k k l l l l l l l l k k k l k l l l k r - .   ",
"    X ; r l l l l h s t a h k l l l l l l j d t t t t a d j l l l l l l k h a y d h l l l l r = .   ",
"    X ; r k l l k d w , 0 a k l l l l l l h r , > > > 1 r h l l l l l l k a 0 < w d l l l l r = .   ",
"    o ; t k l k k r ; X = w j k l l l l l s 1 # . . . & 9 d l l l l k k f w * $ > t k k l k r - .   ",
"    X ; t k h s t 1 *   % < r s h k l l l s < X       $ < s l l l k h a e , $ X * 9 y d j l r = .   ",
"    X ; r j s q > * #   o & > 0 y k l l k s < X       $ 1 s l l l k y 9 > & o . $ * , w d l r - .   ",
"    X ; r h r ; X .       . X = w j l l l s < X       % 1 s l l l h q % .         . o , t k r = .   ",
"    X * 0 t 1 *               % , t a a a w ; X       # ; w a a a t , #             . * 9 a 9 & .   ",
"    . # * > * #               o & > , , , - $ .       X % - , , , ; & X             . $ * , * o     ",
"        . X .                   . X X . X . .           . . X . X . .                   . X .       ",
"                                                                                                    "
};
