/* XPM */
static char *_2c1c06a7df043d4ec04faa53f82f805glYqxriPPkm8G8Hz[] = {
/* columns rows colors chars-per-pixel */
"50 50 167 2 ",
"   c #000000",
".  c #0D0000",
"X  c #040408",
"o  c #09090A",
"O  c #140000",
"+  c #1C0000",
"@  c #070614",
"#  c #04041C",
"$  c #111113",
"%  c #19181C",
"&  c #250000",
"*  c #2C0000",
"=  c #340000",
"-  c #3C0000",
";  c #3C0316",
":  c #1B1B21",
">  c #070736",
",  c #2D2D33",
"<  c #36353D",
"1  c #440000",
"2  c #4B0000",
"3  c #510000",
"4  c #5C0000",
"5  c #640000",
"6  c #6C0000",
"7  c #720000",
"8  c #7A0000",
"9  c #090945",
"0  c #1C1C57",
"q  c #383740",
"w  c #0E0E68",
"e  c #120E6F",
"r  c #0F0F71",
"t  c #101078",
"y  c #450B58",
"u  c #4E3D47",
"i  c #4E4D5E",
"p  c #594A55",
"a  c #54535F",
"s  c #656473",
"d  c #820000",
"f  c #8D0000",
"g  c #8A010D",
"h  c #930000",
"j  c #9E0000",
"k  c #91020D",
"l  c #A50000",
"z  c #AA0000",
"x  c #B50000",
"c  c #BC0000",
"v  c #930733",
"b  c #C40000",
"n  c #CC0000",
"m  c #D40000",
"M  c #DB0000",
"N  c #E40001",
"B  c #EC0101",
"V  c #E4020D",
"C  c #F40101",
"Z  c #FF0000",
"A  c #FD0B0D",
"S  c #E50318",
"D  c #FD0E11",
"F  c #FC1215",
"G  c #FC1518",
"H  c #FB191C",
"J  c #FB1F23",
"K  c #E31A37",
"L  c #FA2226",
"P  c #F9252C",
"I  c #F9282E",
"U  c #F92C33",
"Y  c #F7373F",
"T  c #9B0C5B",
"R  c #833E48",
"E  c #950D61",
"W  c #F73B44",
"Q  c #F63E48",
"!  c #8B4B56",
"~  c #BF4B56",
"^  c #F6414C",
"/  c #F64651",
"(  c #F44A55",
")  c #F44D5A",
"_  c #DB4F75",
"`  c #DC5074",
"'  c #F25967",
"]  c #F2606F",
"[  c #F16271",
"{  c #F06B7B",
"}  c #111185",
"|  c #1E1E9E",
" . c #1E1EAC",
".. c #1919BF",
"X. c #3837BD",
"o. c #5015A0",
"O. c #49488B",
"+. c #1C1AC8",
"@. c #1B1BD1",
"#. c #3434C6",
"$. c #2020EB",
"%. c #2828F6",
"&. c #2221FE",
"*. c #3332FF",
"=. c #3D3DFF",
"-. c #521FCA",
";. c #4E2CDD",
":. c #522EDB",
">. c #4E3DEF",
",. c #7D7BCA",
"<. c #4F4EE5",
"1. c #5756E0",
"2. c #4040FF",
"3. c #5958FE",
"4. c #6867FF",
"5. c #6969FF",
"6. c #706FFF",
"7. c #7776FF",
"8. c #951D85",
"9. c #943EAA",
"0. c #EE7B8D",
"q. c #8F65D7",
"w. c #91869B",
"e. c #AF889D",
"r. c #948EA6",
"t. c #9997AE",
"y. c #B28FA6",
"u. c #CD889D",
"i. c #ED8195",
"p. c #EC889D",
"a. c #CE8FA6",
"s. c #D390BE",
"d. c #EB8FA5",
"f. c #EA94AB",
"g. c #E99BB2",
"h. c #E8A4BD",
"j. c #8180C7",
"k. c #8382FF",
"l. c #8F8CFE",
"z. c #9694FE",
"x. c #A4A2FF",
"c. c #A8A6FF",
"v. c #ADABFE",
"b. c #B1AFFF",
"n. c #B7B5FE",
"m. c #BEBBFF",
"M. c #E8A7C0",
"N. c #E8A9C3",
"B. c #E7AEC9",
"V. c #E6B6D2",
"C. c #E5B8D5",
"Z. c #E4BEDB",
"A. c #E4C1DF",
"S. c #C9C4E7",
"D. c #D7C9EA",
"F. c #C4C2FF",
"G. c #CDC9FD",
"H. c #D2CFFF",
"J. c #DAD3F4",
"K. c #D9D6FF",
"L. c #DEDBFF",
"P. c #E3C5E4",
"I. c #E3C8E7",
"U. c #E3CCEB",
"Y. c #E1D3F4",
"T. c #E1D7F8",
"R. c #E0DDFF",
/* pixels */
"                                                                                                    ",
"                                    . + * * * * * = * * = * * + .                                   ",
"                                    + 1 7 d d 8 d d d d d 8 6 2 +                                   ",
"                                    * 7 b M M M M M M M M M b 8 =                                   ",
"                        X X @ # # # ; g V Z Z Z Z Z Z Z Z Z N k ; # # # # # X                       ",
"                        # 9 w r e e y v V Z Z Z Z Z Z Z Z Z V v y r r r w 9 # X                     ",
"                        > t ..@.@.+.o.E S Z Z Z Z Z Z Z Z Z S T o.+.@.@.+.} > X                     ",
"                  X $ % 0 | $.&.&.&.-.8.K G A Z Z Z Z Z A G K 8.-.&.&.&.$. .0 : $ o                 ",
"                  % < a O.X.%.&.&.&.;.9.` ( I A Z Z Z A I ^ _ 9.:.&.&.&.%.#.O.i q :                 ",
"                X , s t.j.1.%.&.&.&.>.q.s.i.) F Z Z Z H / 0.s.q.>.&.&.&.%.<.,.r.s < X X             ",
"            . . + u w.J.n.7.2.*.*.*.3.l.G.V.{ H Z Z Z L [ h.G.z.3.*.*.*.=.6.v.S.r.p + . .           ",
"            + - 4 R e.J.F.z.7.5.4.5.k.c.H.C.{ H Z Z Z P ] h.H.v.k.5.4.5.5.z.m.D.y.! 4 - &           ",
"          . = 6 z ~ u.J.H.m.c.x.x.x.v.F.K.C.{ H Z Z Z L [ N.K.F.b.x.x.x.c.m.H.D.a.~ z 7 -           ",
"          . 3 j C Q p.Y.R.L.L.L.L.L.L.R.R.C.{ H Z Z Z L ] N.R.R.L.L.L.L.L.R.R.U.f.( B z 4           ",
"          O 2 j C Q p.Y.R.R.R.R.R.R.R.R.R.C.{ H Z Z Z L [ N.R.R.R.R.R.R.L.R.R.U.f.) A l 4           ",
"          . 3 j A Q p.J.R.R.R.R.R.R.R.R.R.Z.{ H Z Z Z L [ N.R.R.R.R.R.R.R.R.R.U.d.) B l 4           ",
"          O 3 j C Q p.Y.R.R.R.R.R.R.R.R.T.V.{ H Z Z Z L ' N.R.R.R.R.R.R.R.R.R.I.d.( C l 3           ",
"          . 3 j C U [ g.B.P.T.R.R.R.Y.A.N.p.) F Z Z Z H ( 0.N.Z.Y.R.R.R.T.I.V.f.{ Y C z 4 .         ",
"          . 3 j C L W ' 0.N.Y.L.R.R.A.f.{ ) U A Z Z Z F I / { f.A.R.R.R.Y.B.i.' W J B z 3           ",
"          O 3 j C Z A G ^ i.P.T.T.Y.B.{ I F A Z Z Z Z Z A D I { N.T.T.Y.U.d.( G A A C z 5 .         ",
"      O & 2 8 x Z Z Z Z I ] g.M.N.h.i.) F Z Z Z Z Z Z Z Z Z F ( i.M.M.N.g.{ U A Z Z C b d 1 * +     ",
"      = 4 f x m C Z Z Z H W ' [ [ ] ) U A Z Z Z Z Z Z Z Z Z A U ( [ [ [ ' Q J Z Z Z C M x f 5 = .   ",
"    O 2 h N C C Z Z Z Z Z D F G H G F A Z Z Z Z Z Z Z Z Z Z Z A F G G G G D Z Z Z Z Z C B N l 3 .   ",
"    . 3 l C Z Z Z Z Z Z Z Z Z Z Z Z Z Z Z Z Z Z Z Z Z Z Z Z Z Z Z Z Z Z Z Z Z Z Z Z Z Z Z Z x 4 .   ",
"    . 3 l C Z Z Z Z Z Z Z Z Z Z Z Z Z Z Z Z Z Z Z Z Z Z Z Z Z Z Z Z Z Z Z Z Z Z Z Z Z Z Z Z c 4 .   ",
"    . 3 l C Z Z Z Z Z Z Z Z Z Z Z Z Z Z Z Z Z Z Z Z Z Z Z Z Z Z Z Z Z Z Z Z Z Z Z Z Z Z Z Z x 4 .   ",
"    . 3 l C Z Z Z Z Z Z Z Z Z Z Z Z Z Z Z Z Z Z Z Z Z Z Z Z Z Z Z Z Z Z Z Z Z Z Z Z Z Z Z C x 4 .   ",
"    . 3 l C Z Z Z Z Z Z Z Z Z Z Z Z Z Z Z Z Z Z Z Z Z Z Z Z Z Z Z Z Z Z Z Z Z Z Z Z Z Z Z Z x 4 .   ",
"    . 3 l C Z Z Z Z Z Z Z Z Z Z Z Z Z Z Z Z Z Z Z Z Z Z Z Z Z Z Z Z Z Z Z Z Z Z Z Z Z Z Z C c 4 .   ",
"    . 3 l C Z Z Z Z Z Z Z Z Z Z Z Z Z Z Z Z Z Z Z Z Z Z Z Z Z Z Z Z Z Z Z Z Z Z Z Z Z Z Z Z x 4 .   ",
"    O 3 l C Z Z Z Z Z Z Z Z Z Z Z Z Z Z Z Z Z Z Z Z Z Z Z Z Z Z Z Z Z Z Z Z Z Z Z Z Z Z Z Z x 4 .   ",
"    . 3 l C Z Z Z Z Z Z Z Z Z Z Z Z Z Z Z Z Z Z Z Z Z Z Z Z Z Z Z Z Z Z Z Z Z Z Z Z Z Z Z Z x 4 .   ",
"    . 3 l C Z Z Z Z Z Z Z Z Z Z Z Z Z Z Z Z Z Z Z Z Z Z Z Z Z Z Z Z Z Z Z Z Z Z Z Z Z Z Z Z x 4 .   ",
"    . 3 l C Z Z Z Z Z Z Z Z Z Z Z Z Z Z Z Z Z Z Z Z Z Z Z Z Z Z Z Z Z Z Z Z Z Z Z Z Z Z Z Z x 4 .   ",
"    . 3 l C Z Z Z Z Z Z Z Z Z Z Z Z Z Z Z Z Z Z Z Z Z Z Z Z Z Z Z Z Z Z Z Z Z Z Z Z Z Z Z Z x 4 .   ",
"    . 3 l C Z Z Z Z Z Z Z Z Z Z Z Z Z Z Z Z Z Z Z Z Z Z Z Z Z Z Z Z Z Z Z Z Z Z Z Z Z Z Z Z x 4 .   ",
"    . 3 l C Z Z Z Z Z Z Z Z Z Z Z Z Z Z Z Z Z Z Z Z Z Z Z Z Z Z Z Z Z Z Z Z Z Z Z Z Z Z Z Z x 4 .   ",
"    . 3 z C Z Z Z Z Z Z Z Z Z Z Z Z Z Z Z Z Z Z Z Z Z Z Z Z Z Z Z Z Z Z Z Z Z Z Z Z Z Z Z Z x 4 .   ",
"    . 3 l C Z Z Z Z C C C C Z Z Z Z Z Z Z Z C C C B C C C Z Z Z Z Z Z Z Z Z C C C Z Z Z Z Z x 4 .   ",
"    . 3 l C Z Z C B m c b N C Z Z Z Z Z Z C m c x x x c m B Z Z Z Z Z Z C N b c n N Z Z Z Z x 4 .   ",
"    . 3 l C Z Z Z m l 6 f b C Z Z Z Z Z Z N x 8 5 5 6 8 z M Z Z Z Z Z Z C b f 8 j b C Z Z Z x 4 .   ",
"    . 3 l C Z C C x 6 + 1 h N C Z Z Z Z Z M d * O O . = 8 b Z Z Z Z Z C B l 2 * 5 z C Z Z Z x 4 .   ",
"    . 3 l C B m c f 1   * 6 z n N C Z Z Z m 8 +       & 7 b Z Z Z C N n x 8 = O 1 8 c m B C x 4 .   ",
"    . 3 l B n l 6 2 *   + - 5 f c B Z Z Z m 8 +       & 6 b Z Z Z C b f 5 1 + . & 1 7 j n Z x 4 .   ",
"    . 3 l B x 6 O . .     . . 2 h N Z Z Z M 8 +       & 7 b Z Z Z C j 1 O .       . + 5 z C c 4 .   ",
"    . 1 d c f 2               * 6 x n n n z 5 O       + 4 j n n n b 8 *             . 1 f b h 2 .   ",
"      & 3 6 3 *               + 1 6 8 8 8 5 - .       O = 4 8 8 8 7 2 +             . & 2 8 3 *     ",
"      . O + O O                 . + + + + + O           . O + + + + O                 . O + O .     ",
"                                                                                                    ",
"                                                                                                    "
};
