/* XPM */
static char *result[] = {
/* columns rows colors chars-per-pixel */
"50 50 154 2 ",
"   c black",
".  c #020200",
"X  c #030300",
"o  c #050500",
"O  c #060600",
"+  c #070700",
"@  c #080800",
"#  c #090900",
"$  c #0A0A00",
"%  c #0B0B00",
"&  c #0C0C00",
"*  c #0F0F00",
"=  c #111100",
"-  c #131300",
";  c #141400",
":  c #161600",
">  c #171700",
",  c #191900",
"<  c #1A1A00",
"1  c #1B1B00",
"2  c #1C1C00",
"3  c #1D1D00",
"4  c #1E1E00",
"5  c #1F1F00",
"6  c #202000",
"7  c #212100",
"8  c #222200",
"9  c #232300",
"0  c #242400",
"q  c #252500",
"w  c #272700",
"e  c #282800",
"r  c #2A2A00",
"t  c #2B2B00",
"y  c #2C2C00",
"u  c #2E2E00",
"i  c #2F2F00",
"p  c #323200",
"a  c #333300",
"s  c #343400",
"d  c #363600",
"f  c #373700",
"g  c #383800",
"h  c #393900",
"j  c #3B3B00",
"k  c #3C3C00",
"l  c #3D3D00",
"z  c #3E3E00",
"x  c #3F3F00",
"c  c #414100",
"v  c #424200",
"b  c #444400",
"n  c #454500",
"m  c #474700",
"M  c #484800",
"N  c #494900",
"B  c #4B4B00",
"V  c #4D4D00",
"C  c #505000",
"Z  c #525200",
"A  c #545400",
"S  c #555500",
"D  c #565600",
"F  c #585800",
"G  c #5E5E00",
"H  c #626200",
"J  c #646400",
"K  c #656500",
"L  c #6B6B00",
"P  c #6C6C00",
"I  c #6D6D00",
"U  c #6F6F00",
"Y  c #717100",
"T  c #747400",
"R  c #757500",
"E  c #767600",
"W  c #787800",
"Q  c #7A7A00",
"!  c #7C7C00",
"~  c #7D7D00",
"^  c #7E7E00",
"/  c #818100",
"(  c #828200",
")  c #838300",
"_  c #858500",
"`  c #878700",
"'  c #888800",
"]  c #8A8A00",
"[  c #8B8B00",
"{  c #8D8D00",
"}  c #8F8F00",
"|  c #919100",
" . c #929200",
".. c #939300",
"X. c #959500",
"o. c #989800",
"O. c #999900",
"+. c #9A9A00",
"@. c #9B9B00",
"#. c #9D9D00",
"$. c #A2A200",
"%. c #A3A300",
"&. c #A5A500",
"*. c #B0B000",
"=. c #B1B100",
"-. c #B7B700",
";. c #B9B900",
":. c #BABA00",
">. c #BCBC00",
",. c #BDBD00",
"<. c #BFBF00",
"1. c #C2C200",
"2. c #C4C400",
"3. c #C5C500",
"4. c #C8C800",
"5. c #C9C900",
"6. c #CCCC00",
"7. c #CECE00",
"8. c #D0D000",
"9. c #D2D200",
"0. c #D5D500",
"q. c #D6D600",
"w. c #D8D800",
"e. c #DADA00",
"r. c #DDDD00",
"t. c #DEDE00",
"y. c #E0E000",
"u. c #E2E200",
"i. c #E3E300",
"p. c #E4E400",
"a. c #E5E500",
"s. c #E7E700",
"d. c #E9E900",
"f. c #EAEA00",
"g. c #EBEB00",
"h. c #ECEC00",
"j. c #EDED00",
"k. c #EEEE00",
"l. c #EFEF00",
"z. c #F0F000",
"x. c #F1F100",
"c. c #F3F300",
"v. c #F4F400",
"b. c #F5F500",
"n. c #F6F600",
"m. c #F7F700",
"M. c #F8F800",
"N. c #F9F900",
"B. c #FAFA00",
"V. c #FBFB00",
"C. c #FCFC00",
"Z. c #FDFD00",
"A. c #FEFE00",
"S. c yellow",
/* pixels */
"                                                                                                    ",
"                                                                                                    ",
"                                                                                                    ",
"                                                                                                    ",
"                                                                                                    ",
"                                                                                                    ",
"                                                                                                    ",
"                                + 1 p l l l l l l l l l l l l l i 1 X                               ",
"                                = x R } } } } } } } } } } } } } I x O                               ",
"                                3 L 4.v.v.v.v.v.v.v.v.v.v.v.v.v.;.L %                               ",
"                    $ 1 i a a a B { e.S.S.S.S.S.S.S.S.S.S.S.S.S.7.{ k a a a t 1 O                   ",
"                    1 n Q _ _ _ ..:.d.S.S.S.S.S.S.S.S.S.S.S.S.S.u.:.] _ _ _ U n =                   ",
"                    i Q w.g.g.g.j.v.V.S.S.S.S.S.S.S.S.S.S.S.S.S.B.v.h.g.g.g.3.Q 3                   ",
"              $ > w A o.k.S.S.S.S.S.S.S.S.S.S.S.S.S.S.S.S.S.S.S.S.S.S.S.S.S.r.o.b 0 > +             ",
"              3 n R X.<.v.S.S.S.S.S.S.S.S.S.S.S.S.S.S.S.S.S.S.S.S.S.S.S.S.S.f.<.[ P n :             ",
"              d ~ 0.a.z.C.S.S.S.S.S.S.S.S.S.S.S.S.S.S.S.S.S.S.S.S.S.S.S.S.S.B.z.i.2.~ e             ",
"              l } v.S.S.S.S.S.S.S.S.S.S.S.S.S.S.S.S.S.S.S.S.S.S.S.S.S.S.S.S.S.S.S.y.} u             ",
"              l } v.S.S.S.S.S.S.S.S.S.S.S.S.S.S.S.S.S.S.S.S.S.S.S.S.S.S.S.S.S.S.S.y.} u             ",
"              l } v.S.S.S.S.S.S.S.S.S.S.S.S.S.S.S.S.S.S.S.S.S.S.S.S.S.S.S.S.S.S.S.y.} u             ",
"        O & ; V o.v.S.S.S.S.S.S.S.S.S.S.S.S.A.M.x.g.x.M.S.S.S.S.S.S.S.S.S.S.S.S.S.i.o.x - & o       ",
"        3 l J [ >.M.S.S.S.S.S.S.S.S.S.S.S.S.V.e.:.O.:.e.A.S.S.S.S.S.S.S.S.S.S.S.S.j.>.( G l ,       ",
"        d T ,.8.p.C.S.S.S.S.S.S.S.S.S.S.S.S.m.:.! z ! :.A.S.S.S.S.S.S.S.S.S.S.S.S.M.p.6.=.T i       ",
"        m O.B.S.S.S.S.S.S.S.S.S.S.S.S.S.S.S.b.%.Z   Z %.A.S.S.S.S.S.S.S.S.S.S.S.S.S.S.S.g.O.z       ",
"        m O.B.S.S.S.S.S.S.S.S.S.S.S.S.S.S.S.b.%.Z   Z %.A.S.S.S.S.S.S.S.S.S.S.S.S.S.S.S.g.O.z       ",
"        m O.B.S.S.S.S.S.S.S.S.S.S.S.S.S.S.S.b.%.Z   Z %.A.S.S.S.S.S.S.S.S.S.S.S.S.S.S.S.g.O.z       ",
"        m O.B.S.S.S.S.S.S.S.S.S.S.S.S.S.S.S.b.%.Z   Z %.A.S.S.S.S.S.S.S.S.S.S.S.S.S.S.S.g.O.z       ",
"        m O.B.S.S.S.S.S.S.S.S.S.S.S.S.S.S.S.b.%.Z   Z %.A.S.S.S.S.S.S.S.S.S.S.S.S.S.S.S.g.O.z       ",
"        m O.B.S.S.S.S.S.S.S.S.S.S.S.S.S.S.S.b.%.Z   Z %.A.S.S.S.S.S.S.S.S.S.S.S.S.S.S.S.g.O.z       ",
"        m O.B.S.S.S.S.S.S.S.S.S.S.S.S.S.S.S.b.%.Z   Z %.A.S.S.S.S.S.S.S.S.S.S.S.S.S.S.S.g.O.z       ",
"        m O.B.S.S.S.S.S.S.S.S.S.S.S.S.N.u.5.*.E j   j E -.6.u.A.S.S.S.S.S.S.S.S.S.S.S.S.g.O.z       ",
"        m O.B.S.S.S.S.S.S.S.S.S.S.S.S.c.1.[ H c 7   7 c K | 1.C.S.S.S.S.S.S.S.S.S.S.S.S.g.O.z       ",
"        m O.B.S.S.S.S.S.S.S.S.S.S.S.S.g.@.v o X .   . X o B @.B.S.S.S.S.S.S.S.S.S.S.S.S.g.O.z       ",
"        m O.B.S.S.S.S.S.S.S.S.S.S.S.S.g.O.z               m O.B.S.S.S.S.S.S.S.S.S.S.S.S.g.O.z       ",
"        m O.B.S.S.S.S.S.S.S.S.S.S.S.S.g.O.z               m O.B.S.S.S.S.S.S.S.S.S.S.S.S.g.O.z       ",
"        m O.B.S.S.S.S.S.S.S.S.S.S.S.S.g.O.z               m O.B.S.S.S.S.S.S.S.S.S.S.S.S.g.O.z       ",
"        h Q 4.w.d.Z.S.S.S.S.S.S.S.S.S.g.O.z               m O.B.S.S.S.S.S.S.S.S.S.N.d.0.>.Q p       ",
"        8 N W +.3.N.S.S.S.S.S.S.S.S.S.g.O.z               m O.B.S.S.S.S.S.S.S.S.S.l.3. .Y N 4       ",
"        O & ; V o.v.S.S.S.S.S.S.S.S.S.g.O.z               m O.B.S.S.S.S.S.S.S.S.S.i.o.x - & o       ",
"              l } v.S.S.S.S.S.S.B.j.t.3./ s               k / 9.y.j.Z.S.S.S.S.S.S.y.} u             ",
"              l } v.S.S.S.S.S.S.z.5.@.Q C 6               q C ( $.5.N.S.S.S.S.S.S.y.} u             ",
"              l } v.S.S.S.S.S.S.p.#.M 3 - @               # - 5 S #.b.S.S.S.S.S.S.y.} u             ",
"              d ^ q.s.z.Z.S.S.S.y.} u                           l } v.S.S.S.B.z.p.3.^ e             ",
"              8 C ' &.5.n.S.S.S.y.} u                           l } v.S.S.S.j.5.#.^ C <             ",
"              % < y F @.k.S.S.S.y.} u                           l } v.S.S.S.t.@.M e < @             ",
"                    i Q w.g.g.g.7.) r                           g ) y.g.g.g.3.Q 3                   ",
"                    5 C { O.O.O.` D 2                           q D  .O.O.O./ C -                   ",
"                    & 6 h z z z f 9 %                           * 9 k z z z s 6 @                   ",
"                                                                                                    ",
"                                                                                                    ",
"                                                                                                    "
};
