/* XPM */
static char *result[] = {
/* columns rows colors chars-per-pixel */
"50 50 120 2 ",
"   c black",
".  c #030300",
"X  c #060600",
"o  c #070700",
"O  c #080800",
"+  c #090900",
"@  c #0A0A00",
"#  c #0B0B00",
"$  c #0C0C00",
"%  c #0F0F00",
"&  c #121200",
"*  c #181800",
"=  c #1A1A00",
"-  c #1B1B00",
";  c #1C1C00",
":  c #1D1D00",
">  c #1E1E00",
",  c #1F1F00",
"<  c #202000",
"1  c #222200",
"2  c #262600",
"3  c #272700",
"4  c #282800",
"5  c #2A2A00",
"6  c #2C2C00",
"7  c #2D2D00",
"8  c #2E2E00",
"9  c #2F2F00",
"0  c #313100",
"q  c #333300",
"w  c #363600",
"e  c #373700",
"r  c #383800",
"t  c #3A3A00",
"y  c #3B3B00",
"u  c #3C3C00",
"i  c #3D3D00",
"p  c #3E3E00",
"a  c #434300",
"s  c #464600",
"d  c #474700",
"f  c #494900",
"g  c #4A4A00",
"h  c #4C4C00",
"j  c #4F4F00",
"k  c #505000",
"l  c #525200",
"z  c #545400",
"x  c #585800",
"c  c #5B5B00",
"v  c #5C5C00",
"b  c #676700",
"n  c #6E6E00",
"m  c #6F6F00",
"M  c #717100",
"N  c #747400",
"B  c #757500",
"V  c #787800",
"C  c #7B7B00",
"Z  c #7D7D00",
"A  c #7E7E00",
"S  c #7F7F00",
"D  c #838300",
"F  c #848400",
"G  c #868600",
"H  c #888800",
"J  c #898900",
"K  c #8A8A00",
"L  c #8F8F00",
"P  c #929200",
"I  c #949400",
"U  c #999900",
"Y  c #9A9A00",
"T  c #9C9C00",
"R  c #9D9D00",
"E  c #A1A100",
"W  c #A3A300",
"Q  c #A6A600",
"!  c #ADAD00",
"~  c #B2B200",
"^  c #B3B300",
"/  c #B9B900",
"(  c #BCBC00",
")  c #BEBE00",
"_  c #C0C000",
"`  c #C1C100",
"'  c #C4C400",
"]  c #C5C500",
"[  c #CDCD00",
"{  c #CECE00",
"}  c #D0D000",
"|  c #D6D600",
" . c #D7D700",
".. c #D9D900",
"X. c #DBDB00",
"o. c #DCDC00",
"O. c #DEDE00",
"+. c #E0E000",
"@. c #E2E200",
"#. c #E4E400",
"$. c #E5E500",
"%. c #E7E700",
"&. c #E9E900",
"*. c #EBEB00",
"=. c #EDED00",
"-. c #EEEE00",
";. c #EFEF00",
":. c #F1F100",
">. c #F2F200",
",. c #F4F400",
"<. c #F5F500",
"1. c #F7F700",
"2. c #F8F800",
"3. c #F9F900",
"4. c #FAFA00",
"5. c #FBFB00",
"6. c #FCFC00",
"7. c #FDFD00",
"8. c #FEFE00",
"9. c yellow",
/* pixels */
"                                                                                                    ",
"                                                                                                    ",
"                                                                                                    ",
"                                                                                                    ",
"                                + , y d d d d d d d d d d d d d w , .                               ",
"                                & a Z U U U U U U U U U U U U U N a o                               ",
"                                > n [ 4.4.4.4.4.4.4.4.4.4.4.4.4.) n #                               ",
"                    $ < r i i i z P o.9.9.9.9.9.9.9.9.9.9.9.9.9.} P s i i i q < O                   ",
"                    : g D L L L T _ *.9.9.9.9.9.9.9.9.9.9.9.9.9.#._ I L L L V g &                   ",
"                    0 S +.,.,.,.<.3.7.9.9.9.9.9.9.9.9.9.9.9.9.9.6.3.,.,.,.,.[ S >                   ",
"              $ : 0 v R ;.9.9.9.9.9.9.9.9.9.9.9.9.9.9.9.9.9.9.9.9.9.9.9.9.9.O.R h 7 : +             ",
"              < g S R ' <.9.9.9.9.9.9.9.9.9.9.9.9.9.9.9.9.9.9.9.9.9.9.9.9.9.*.' I B g *             ",
"              r D +.;.<.7.9.9.9.9.9.9.9.9.9.9.9.9.9.9.9.9.9.9.9.9.9.9.9.9.9.6.<.=.{ D 5             ",
"              i L ,.9.9.9.9.9.9.9.9.9.9.9.9.9.9.9.9.9.9.9.9.9.9.9.9.9.9.9.9.9.9.9.+.L 8             ",
"              i L ,.9.9.9.9.9.9.9.9.9.9.9.9.9.9.9.9.9.9.9.9.9.9.9.9.9.9.9.9.9.9.9.+.L 8             ",
"              i L ,.9.9.9.9.9.9.9.9.9.9.9.9.9.9.9.9.9.9.9.9.9.9.9.9.9.9.9.9.9.9.9.+.L 8             ",
"              w A | +.+.+.$.;.5.9.9.9.9.9.9.9.9.9.9.9.9.9.9.9.9.9.9.9.9.9.9.9.9.9.#.T d ; & o       ",
"              1 k H L L L E ] :.9.9.9.9.9.9.9.9.9.9.9.9.9.9.9.9.9.9.9.9.9.9.9.9.9.-._ K b a -       ",
"              # = 6 8 8 8 j P $.9.9.9.9.9.9.9.9.9.9.9.9.9.9.9.9.9.9.9.9.9.9.9.9.9.3.*..._ Z q       ",
"                          2 M [ *.*.*.*.*.*.*.>.2.9.9.9.9.9.9.9.9.9.9.9.9.9.9.9.9.9.9.9.*.U p       ",
"                          * f G U U U U U U R ) O.9.9.9.9.9.9.9.9.9.9.9.9.9.9.9.9.9.9.9.*.U p       ",
"                          @ > e p p p p p p s F ` 9.9.9.9.9.9.9.9.9.9.9.9.9.9.9.9.9.9.9.*.U p       ",
"                                            @ x Q <.<.<.<.<.<.<.1.5.9.9.9.9.9.9.9.9.9.9.*.U p       ",
"                                            o y m W W W W W W W /  .5.9.9.9.9.9.9.9.9.9.*.U p       ",
"                                            . : e l l l l l l l C ^ 1.9.9.9.9.9.9.9.9.9.*.U p       ",
"                                                                i L ,.9.9.9.9.9.9.9.9.9.*.U p       ",
"                                            . : e l l l l l l l C ^ 1.9.9.9.9.9.9.9.9.9.*.U p       ",
"                                            o y m W W W W W W W /  .5.9.9.9.9.9.9.9.9.9.*.U p       ",
"                                            @ c ! 8.8.8.8.8.8.8.8.8.9.9.9.9.9.9.9.9.9.9.*.U p       ",
"                          # 1 p d d d d d d j J ' 9.9.9.9.9.9.9.9.9.9.9.9.9.9.9.9.9.9.9.*.U p       ",
"                          * f G U U U U U U R ) O.9.9.9.9.9.9.9.9.9.9.9.9.9.9.9.9.9.9.9.*.U p       ",
"                          4 V X.4.4.4.4.4.4.4.6.7.9.9.9.9.9.9.9.9.9.9.9.9.9.9.9.9.9.9.9.*.U p       ",
"              % 1 t i i i v Y %.9.9.9.9.9.9.9.9.9.9.9.9.9.9.9.9.9.9.9.9.9.9.9.9.9.2.#.[ ~ N 9       ",
"              1 k H L L L E ] :.9.9.9.9.9.9.9.9.9.9.9.9.9.9.9.9.9.9.9.9.9.9.9.9.9.-._ K b a -       ",
"              t H &.,.,.,.<.3.8.9.9.9.9.9.9.9.9.9.9.9.9.9.9.9.9.9.9.9.9.9.9.9.9.9.@.I e # o .       ",
"              i L ,.9.9.9.9.9.9.9.9.9.9.9.9.9.9.9.9.9.9.9.9.9.9.9.9.9.9.9.9.9.9.9.+.L 8             ",
"              i L ,.9.9.9.9.9.9.9.9.9.9.9.9.9.9.9.9.9.9.9.9.9.9.9.9.9.9.9.9.9.9.9.+.L 8             ",
"              i L ,.9.9.9.9.9.9.9.9.9.9.9.9.9.9.9.9.9.9.9.9.9.9.9.9.9.9.9.9.9.9.9.+.L 8             ",
"              q V [ O.*.6.9.9.9.9.9.9.9.9.9.9.9.9.9.9.9.9.9.9.9.9.9.9.9.9.9.2.*.X.( V 3             ",
"              < g S R ' <.9.9.9.9.9.9.9.9.9.9.9.9.9.9.9.9.9.9.9.9.9.9.9.9.9.*.' I B g *             ",
"              O & > h I =.9.9.9.9.9.9.9.9.9.9.9.9.9.9.9.9.9.9.9.9.9.9.9.9.9.X.I u ; & X             ",
"                    7 B { +.+.+.#.-.3.9.9.9.9.9.9.9.9.9.9.9.9.9.2.-.@.+.+.+.( B ;                   ",
"                    : g D L L L T _ *.9.9.9.9.9.9.9.9.9.9.9.9.9.#._ I L L L V g &                   ",
"                    + * 5 8 8 8 d K ..9.9.9.9.9.9.9.9.9.9.9.9.9.[ K e 8 8 8 3 * X                   ",
"                                ; b _ *.*.*.*.*.*.*.*.*.*.*.*.*.~ b #                               ",
"                                & a Z U U U U U U U U U U U U U N a o                               ",
"                                o - q p p p p p p p p p p p p p 9 - .                               ",
"                                                                                                    ",
"                                                                                                    ",
"                                                                                                    "
};
