/* XPM */
static char *result[] = {
/* columns rows colors chars-per-pixel */
"50 50 169 2 ",
"   c black",
".  c #010100",
"X  c #020200",
"o  c #040400",
"O  c #050500",
"+  c #060600",
"@  c #070700",
"#  c #080800",
"$  c #090900",
"%  c #0A0A00",
"&  c #0C0C00",
"*  c #0D0D00",
"=  c #0E0E00",
"-  c #0F0F00",
";  c #101000",
":  c #121200",
">  c #131300",
",  c #141400",
"<  c #151500",
"1  c #161600",
"2  c #171700",
"3  c #181800",
"4  c #191900",
"5  c #1A1A00",
"6  c #1B1B00",
"7  c #1C1C00",
"8  c #1D1D00",
"9  c #1F1F00",
"0  c #202000",
"q  c #222200",
"w  c #242400",
"e  c #252500",
"r  c #262600",
"t  c #282800",
"y  c #292900",
"u  c #2B2B00",
"i  c #2C2C00",
"p  c #2D2D00",
"a  c #2E2E00",
"s  c #2F2F00",
"d  c #313100",
"f  c #323200",
"g  c #333300",
"h  c #353500",
"j  c #363600",
"k  c #373700",
"l  c #383800",
"z  c #393900",
"x  c #3C3C00",
"c  c #3D3D00",
"v  c #3E3E00",
"b  c #424200",
"n  c #434300",
"m  c #444400",
"M  c #454500",
"N  c #464600",
"B  c #474700",
"V  c #494900",
"C  c #4B4B00",
"Z  c #4C4C00",
"A  c #4F4F00",
"S  c #525200",
"D  c #565600",
"F  c #585800",
"G  c #5A5A00",
"H  c #5C5C00",
"J  c #5D5D00",
"K  c #5E5E00",
"L  c #616100",
"P  c #626200",
"I  c #636300",
"U  c #646400",
"Y  c #666600",
"T  c #696900",
"R  c #6B6B00",
"E  c #6D6D00",
"W  c #707000",
"Q  c #737300",
"!  c #757500",
"~  c #777700",
"^  c #787800",
"/  c #797900",
"(  c #7A7A00",
")  c #7C7C00",
"_  c #7D7D00",
"`  c #7E7E00",
"'  c #7F7F00",
"]  c #808000",
"[  c #818100",
"{  c #828200",
"}  c #858500",
"|  c #868600",
" . c #878700",
".. c #8B8B00",
"X. c #8D8D00",
"o. c #8F8F00",
"O. c #919100",
"+. c #929200",
"@. c #939300",
"#. c #949400",
"$. c #969600",
"%. c #989800",
"&. c #999900",
"*. c #9B9B00",
"=. c #9D9D00",
"-. c #9E9E00",
";. c #A3A300",
":. c #A4A400",
">. c #A5A500",
",. c #A6A600",
"<. c #A7A700",
"1. c #A9A900",
"2. c #AAAA00",
"3. c #ABAB00",
"4. c #ADAD00",
"5. c #AFAF00",
"6. c #B0B000",
"7. c #B1B100",
"8. c #B2B200",
"9. c #B3B300",
"0. c #B6B600",
"q. c #B8B800",
"w. c #BABA00",
"e. c #BCBC00",
"r. c #BFBF00",
"t. c #C0C000",
"y. c #C2C200",
"u. c #C4C400",
"i. c #C5C500",
"p. c #C7C700",
"a. c #CACA00",
"s. c #CBCB00",
"d. c #CCCC00",
"f. c #CECE00",
"g. c #D2D200",
"h. c #D3D300",
"j. c #D4D400",
"k. c #D6D600",
"l. c #D9D900",
"z. c #DADA00",
"x. c #DBDB00",
"c. c #DDDD00",
"v. c #E0E000",
"b. c #E1E100",
"n. c #E2E200",
"m. c #E3E300",
"M. c #E5E500",
"N. c #E7E700",
"B. c #E9E900",
"V. c #EAEA00",
"C. c #EBEB00",
"Z. c #EDED00",
"A. c #EFEF00",
"S. c #F0F000",
"D. c #F1F100",
"F. c #F2F200",
"G. c #F3F300",
"H. c #F4F400",
"J. c #F5F500",
"K. c #F6F600",
"L. c #F7F700",
"P. c #F8F800",
"I. c #F9F900",
"U. c #FAFA00",
"Y. c #FBFB00",
"T. c #FCFC00",
"R. c #FDFD00",
"E. c #FEFE00",
"W. c yellow",
/* pixels */
"                                                                                                    ",
"                                                                                                    ",
"                                                                                                    ",
"                                                                                                    ",
"                    % 6 s g g g p 8 $                           & 8 d g g g u 6 +                   ",
"                    4 b ! ] ' ] W B 2                           9 B ( ' ' ' R b ;                   ",
"                    i Q s.c.c.c.y.) t                           h ) h.c.c.c.w.Q 7                   ",
"              + = 3 B O.Z.W.W.W.v.o.a                           c o.H.W.W.W.z.O.j 1 = O             ",
"              3 z L } 0.G.W.W.W.v.o.a                           c o.H.W.W.W.N.0./ G z :             ",
"              u U 2.y.z.I.W.W.W.v.o.a                           c o.H.W.W.W.G.z.e.=.U 0             ",
"              c o.H.W.W.W.W.W.W.v.o.a                           c o.H.W.W.W.W.W.W.v.o.a             ",
"              c o.H.W.W.W.W.W.W.V.6.E N a >               < a C ~ 6.L.W.W.W.W.W.W.v.o.a             ",
"              c o.H.W.W.W.W.W.W.G.g.3.X.H e               u H $.7.g.U.W.W.W.W.W.W.v.o.a             ",
"              c o.H.W.W.W.W.W.W.E.Y.P.m.#.x               M #.F.I.Y.W.W.W.W.W.W.W.v.o.a             ",
"        = 9 f U >.K.W.W.W.W.W.W.W.W.W.C.&.v               B &.U.W.W.W.W.W.W.W.W.W.N.>.F s 9 &       ",
"        w Z _ -.p.I.W.W.W.W.W.W.W.W.W.C.&.v               B &.U.W.W.W.W.W.W.W.W.W.S.p.$.! Z 9       ",
"        v } l.M.S.R.W.W.W.W.W.W.W.W.W.C.&.v               B &.U.W.W.W.W.W.W.W.W.W.Y.S.m.s.} j       ",
"        B &.U.W.W.W.W.W.W.W.W.W.W.W.W.C.&.v               B &.U.W.W.W.W.W.W.W.W.W.W.W.W.C.&.v       ",
"        B &.U.W.W.W.W.W.W.W.W.W.W.W.W.C.&.v               B &.U.W.W.W.W.W.W.W.W.W.W.W.W.C.&.v       ",
"        B &.U.W.W.W.W.W.W.W.W.W.W.W.W.C.&.v               B &.U.W.W.W.W.W.W.W.W.W.W.W.W.C.&.v       ",
"        B &.U.W.W.W.W.W.W.W.W.W.W.W.W.C.&.v               B &.U.W.W.W.W.W.W.W.W.W.W.W.W.C.&.v       ",
"        B &.U.W.W.W.W.W.W.W.W.W.W.W.W.D.q.^ V d 3   3 d Z ` q.Y.W.W.W.W.W.W.W.W.W.W.W.W.C.&.v       ",
"        B &.U.W.W.W.W.W.W.W.W.W.W.W.W.L.k.8.@.P d   d P %.0.k.R.W.W.W.W.W.W.W.W.W.W.W.W.C.&.v       ",
"        B &.U.W.W.W.W.W.W.W.W.W.W.W.W.E.T.I.Z.-.A   A -.J.I.T.W.W.W.W.W.W.W.W.W.W.W.W.W.C.&.v       ",
"        B &.U.W.W.W.W.W.W.W.W.W.W.W.W.W.W.W.J.;.S   S ;.E.W.W.W.W.W.W.W.W.W.W.W.W.W.W.W.C.&.v       ",
"        B &.U.W.W.W.W.W.W.W.W.W.W.W.W.W.W.W.J.;.S   S ;.E.W.W.W.W.W.W.W.W.W.W.W.W.W.W.W.C.&.v       ",
"        B &.U.W.W.W.W.W.W.W.W.W.W.W.W.W.W.W.J.;.S   S ;.E.W.W.W.W.W.W.W.W.W.W.W.W.W.W.W.C.&.v       ",
"        B &.U.W.W.W.W.W.W.W.W.W.W.W.W.W.W.W.J.;.S   S ;.E.W.W.W.W.W.W.W.W.W.W.W.W.W.W.W.C.&.v       ",
"        B &.U.W.W.W.W.W.W.W.W.W.W.W.W.W.W.W.J.;.S   S ;.E.W.W.W.W.W.W.W.W.W.W.W.W.W.W.W.C.&.v       ",
"        B &.U.W.W.W.W.W.W.W.W.W.W.W.W.W.W.W.J.;.S   S ;.E.W.W.W.W.W.W.W.W.W.W.W.W.W.W.W.C.&.v       ",
"        B &.U.W.W.W.W.W.W.W.W.W.W.W.W.W.W.W.J.;.S   S ;.E.W.W.W.W.W.W.W.W.W.W.W.W.W.W.W.C.&.v       ",
"        f R 5.i.c.T.W.W.W.W.W.W.W.W.W.W.W.W.P.r.| Z | r.E.W.W.W.W.W.W.W.W.W.W.W.W.K.c.t.:.R i       ",
"        8 c U ..e.P.W.W.W.W.W.W.W.W.W.W.W.W.Y.z.w.&.w.z.E.W.W.W.W.W.W.W.W.W.W.W.W.Z.e.{ K c 4       ",
"        X O # m @.H.W.W.W.W.W.W.W.W.W.W.W.W.W.T.I.L.I.T.W.W.W.W.W.W.W.W.W.W.W.W.W.b.@.h # O X       ",
"              c o.H.W.W.W.W.W.W.W.W.W.W.W.W.W.W.W.W.W.W.W.W.W.W.W.W.W.W.W.W.W.W.W.v.o.a             ",
"              c o.H.W.W.W.W.W.W.W.W.W.W.W.W.W.W.W.W.W.W.W.W.W.W.W.W.W.W.W.W.W.W.W.v.o.a             ",
"              c o.H.W.W.W.W.W.W.W.W.W.W.W.W.W.W.W.W.W.W.W.W.W.W.W.W.W.W.W.W.W.W.W.v.o.a             ",
"              k [ x.C.G.R.W.W.W.W.W.W.W.W.W.W.W.W.W.W.W.W.W.W.W.W.W.W.W.W.W.Y.G.B.a.[ y             ",
"              e D +.4.f.L.W.W.W.W.W.W.W.W.W.W.W.W.W.W.W.W.W.W.W.W.W.W.W.W.W.A.f.,. .D 7             ",
"              : u V W 1.D.W.W.W.W.W.W.W.W.W.W.W.W.W.W.W.W.W.W.W.W.W.W.W.W.W.n.1.I n u =             ",
"                    g } C.W.W.W.W.W.W.W.W.W.W.W.W.W.W.W.W.W.W.W.W.W.W.W.W.W.k.} 0                   ",
"                    w J :.9.8.9.e.j.D.W.W.W.W.W.W.W.W.W.W.W.W.W.Z.j.0.8.8.8.$.J 1                   ",
"                    , h K Y Y Y ^ 1.m.W.W.W.W.W.W.W.W.W.W.W.W.W.z.1.E Y Y Y D h *                   ",
"                    X o # # # # r ! h.W.W.W.W.W.W.W.W.W.W.W.W.W.u.! , # # # @ o .                   ",
"                                3 G <.d.d.d.d.d.d.d.d.d.d.d.d.d.*.G $                               ",
"                                - l T ' ' ] ' ] ] ] ] ] ] ] ' ] L l +                               ",
"                                o - 7 q q q q q q q q q q q q q 5 - X                               ",
"                                                                                                    ",
"                                                                                                    ",
"                                                                                                    "
};
