/* XPM */
static char *result[] = {
/* columns rows colors chars-per-pixel */
"50 50 182 2 ",
"   c black",
".  c #010100",
"X  c #020200",
"o  c #030300",
"O  c #040400",
"+  c #050500",
"@  c #060600",
"#  c #070700",
"$  c #080800",
"%  c #090900",
"&  c #0A0A00",
"*  c #0B0B00",
"=  c #0C0C00",
"-  c #0D0D00",
";  c #0E0E00",
":  c #0F0F00",
">  c #101000",
",  c #121200",
"<  c #131300",
"1  c #141400",
"2  c #161600",
"3  c #171700",
"4  c #181800",
"5  c #191900",
"6  c #1A1A00",
"7  c #1B1B00",
"8  c #1C1C00",
"9  c #1D1D00",
"0  c #1E1E00",
"q  c #1F1F00",
"w  c #202000",
"e  c #222200",
"r  c #232300",
"t  c #242400",
"y  c #252500",
"u  c #262600",
"i  c #292900",
"p  c #2B2B00",
"a  c #2C2C00",
"s  c #2E2E00",
"d  c #2F2F00",
"f  c #313100",
"g  c #323200",
"h  c #333300",
"j  c #343400",
"k  c #353500",
"l  c #363600",
"z  c #373700",
"x  c #383800",
"c  c #393900",
"v  c #3A3A00",
"b  c #3C3C00",
"n  c #3D3D00",
"m  c #3E3E00",
"M  c #3F3F00",
"N  c #404000",
"B  c #424200",
"V  c #434300",
"C  c #444400",
"Z  c #454500",
"A  c #474700",
"S  c #494900",
"D  c #4B4B00",
"F  c #4C4C00",
"G  c #4D4D00",
"H  c #505000",
"J  c #525200",
"K  c #565600",
"L  c #575700",
"P  c #585800",
"I  c #5A5A00",
"U  c #5B5B00",
"Y  c #5C5C00",
"T  c #5D5D00",
"R  c #5E5E00",
"E  c #616100",
"W  c #636300",
"Q  c #646400",
"!  c #666600",
"~  c #676700",
"^  c #696900",
"/  c #6B6B00",
"(  c #6C6C00",
")  c #6D6D00",
"_  c #6E6E00",
"`  c #707000",
"'  c #727200",
"]  c #737300",
"[  c #747400",
"{  c #757500",
"}  c #787800",
"|  c #797900",
" . c #7A7A00",
".. c #7D7D00",
"X. c #7F7F00",
"o. c #808000",
"O. c #818100",
"+. c #828200",
"@. c #858500",
"#. c #878700",
"$. c #8A8A00",
"%. c #8B8B00",
"&. c #8C8C00",
"*. c #8D8D00",
"=. c #8F8F00",
"-. c #919100",
";. c #929200",
":. c #939300",
">. c #969600",
",. c #999900",
"<. c #9A9A00",
"1. c #9B9B00",
"2. c #9D9D00",
"3. c #9E9E00",
"4. c #A1A100",
"5. c #A2A200",
"6. c #A4A400",
"7. c #A5A500",
"8. c #A6A600",
"9. c #A7A700",
"0. c #A9A900",
"q. c #AAAA00",
"w. c #ADAD00",
"e. c #AFAF00",
"r. c #B2B200",
"t. c #B3B300",
"y. c #B4B400",
"u. c #B6B600",
"i. c #B8B800",
"p. c #BABA00",
"a. c #BBBB00",
"s. c #BCBC00",
"d. c #BDBD00",
"f. c #BEBE00",
"g. c #C0C000",
"h. c #C2C200",
"j. c #C4C400",
"k. c #C5C500",
"l. c #C6C600",
"z. c #C7C700",
"x. c #CACA00",
"c. c #CBCB00",
"v. c #CCCC00",
"b. c #CECE00",
"n. c #D0D000",
"m. c #D3D300",
"M. c #D4D400",
"N. c #D6D600",
"B. c #D9D900",
"V. c #DADA00",
"C. c #DBDB00",
"Z. c #DDDD00",
"A. c #DEDE00",
"S. c #DFDF00",
"D. c #E0E000",
"F. c #E1E100",
"G. c #E2E200",
"H. c #E3E300",
"J. c #E4E400",
"K. c #E5E500",
"L. c #E6E600",
"P. c #E7E700",
"I. c #E8E800",
"U. c #E9E900",
"Y. c #EBEB00",
"T. c #ECEC00",
"R. c #EDED00",
"E. c #EFEF00",
"W. c #F0F000",
"Q. c #F1F100",
"!. c #F3F300",
"~. c #F4F400",
"^. c #F5F500",
"/. c #F6F600",
"(. c #F7F700",
"). c #F8F800",
"_. c #F9F900",
"`. c #FAFA00",
"'. c #FBFB00",
"]. c #FCFC00",
"[. c #FDFD00",
"{. c yellow",
/* pixels */
"                                                                                                    ",
"                                % e M F F F F F F F F F F F F F v e o                               ",
"                                , V ..,.,.,.,.,.,.,.,.,.,.,.,.,.[ V #                               ",
"                                0 ( x././.(./.(.(.(.(.(.(.(./.(.a.( *                               ",
"                    & 7 d h h h D *.V.{.{.{.{.{.{.{.{.{.{.{.{.{.b.*.b h h h p 7 @                   ",
"                    5 B { o.X.o.=.i.I.{.{.{.{.{.{.{.{.{.{.{.{.{.D.i.@.X.X.X./ B >                   ",
"                    a ] c.Z.Z.Z.F.T._.{.{.{.{.{.{.{.{.{.{.{.{.{.(.T.S.Z.Z.Z.p.] 8                   ",
"              @ ; 4 A -.R.{.{.{.{.{.{.{.{.{.{.{.{.{.{.{.{.{.{.{.{.{.{.{.{.{.V.-.l 2 ; +             ",
"              4 c E @.u.!.{.{.{.{.{.{.{.{.{.{.{.{.{.{.{.{.{.{.{.{.{.{.{.{.{.P.u.| I c ,             ",
"              p Q q.h.V._.{.{.{.{.{.{.{.{.{.{.{.{.{.{.{.{.{.{.{.{.{.{.{.{.{.!.V.s.2.Q w             ",
"              n =.~.{.{.{.{.{.{.{.{.{.{.{.{.{.{.{.{.{.{.{.{.{.{.{.{.{.{.{.{.{.{.{.D.=.s             ",
"              n =.~.{.{.{.{.{.{.{.{.{.{.{.{.{.{.{.{.{.{.{.{.{.{.{.{.{.{.{.{.{.{.{.D.=.s             ",
"              n =.~.{.{.{.{.{.{.{.{.{.{.{.{.{.{.{.{.{.{.{.{.{.{.{.{.{.{.{.{.{.{.{.D.=.s             ",
"              n =.~.{.{.{.{.{.{.{.{.{.{.{.{.{.{.{.{.{.{.{.{.{.{.{.{.{.{.{.{.{.{.{.D.=.s             ",
"        ; q g Q 7./.{.{.{.{.{.{.{.{.{.{.{.{.{.{.{.{.{.{.{.{.{.{.{.{.{.^.J.n.v.v.v.y.' y             ",
"        t F ..3.z._.{.{.{.{.{.{.{.{.{.{.{.{.{.{.{.{.{.{.{.{.{.{.{.{.{.K.d.$.o.X.o.` A 3             ",
"        m @.B.K.W.[.{.{.{.{.{.{.{.{.{.{.{.{.{.{.{.{.{.{.{.{.{.{.{.{.{.m.&.j e e e 0 < @             ",
"        A ,.`.{.{.{.{.{.{.{.{.{.{.{.{.{.{.{.{.{.{.{.(.E.L.L.K.L.L.L.L.i._ ,                         ",
"        A ,.`.{.{.{.{.{.{.{.{.{.{.{.{.{.{.{.{.{.{.{.A.f.<.,.,.,.,.,.,. .S =                         ",
"        A ,.`.{.{.{.{.{.{.{.{.{.{.{.{.{.{.{.{.{.{.{.l.*.G F F F F F F n y @                         ",
"        A ,.`.{.{.{.{.{.{.{.{.{.{.{.{.{.{.{.{.{.{.{.w.Y .                                           ",
"        A ,.`.{.{.{.{.{.{.{.{.{./.Z.g.r.r.t.r.t.t.t.| N .                                           ",
"        A ,.`.{.{.{.{.{.{.{.{.{.R.s.+.! ! ! ! ! ! ! Z y .                                           ",
"        A ,.`.{.{.{.{.{.{.{.{.{.F.:.k $ $ $ $ $ $ $ @ o                                             ",
"        A ,.`.{.{.{.{.{.{.{.{.{.P.7.P h h h h h h h r ,                                             ",
"        A ,.`.{.{.{.{.{.{.{.{.{.W.z.>.X.X.o.X.o.o.o.L s .                                           ",
"        A ,.`.{.{.{.{.{.{.{.{.{.'.W.H.Z.Z.Z.Z.Z.Z.Z.>.H .                                           ",
"        A ,.`.{.{.{.{.{.{.{.{.{.{.{.{.{.{.{.{.{.{.{.u.( 7 6 5 6 6 6 6 1 = X                         ",
"        A ,.`.{.{.{.{.{.{.{.{.{.{.{.{.{.{.{.{.{.{.{.b.2.~ ! ! ! ! ! ! J f $                         ",
"        A ,.`.{.{.{.{.{.{.{.{.{.{.{.{.{.{.{.{.{.{.{.P.b.t.t.r.t.t.t.t.=.K ;                         ",
"        A ,.`.{.{.{.{.{.{.{.{.{.{.{.{.{.{.{.{.{.{.{.{.{.{.{.{.{.{.{.{.v. .1                         ",
"        g / e.k.Z.].{.{.{.{.{.{.{.{.{.{.{.{.{.{.{.{.{.{.{.{.{.{.{.{.{.C.5.U F F F V p ;             ",
"        9 n Q %.s.).{.{.{.{.{.{.{.{.{.{.{.{.{.{.{.{.{.{.{.{.{.{.{.{.{.Y.x.4.,.,.,.#.K 8             ",
"        X + $ C :.~.{.{.{.{.{.{.{.{.{.{.{.{.{.{.{.{.{.{.{.{.{.{.{.{.{.[.'.(.(./.(.B.$.a             ",
"              n =.~.{.{.{.{.{.{.{.{.{.{.{.{.{.{.{.{.{.{.{.{.{.{.{.{.{.{.{.{.{.{.{.D.=.s             ",
"              n =.~.{.{.{.{.{.{.{.{.{.{.{.{.{.{.{.{.{.{.{.{.{.{.{.{.{.{.{.{.{.{.{.D.=.s             ",
"              n =.~.{.{.{.{.{.{.{.{.{.{.{.{.{.{.{.{.{.{.{.{.{.{.{.{.{.{.{.{.{.{.{.D.=.s             ",
"              z O.C.Y.!.[.{.{.{.{.{.{.{.{.{.{.{.{.{.{.{.{.{.{.{.{.{.{.{.{.{.'.!.U.x.O.i             ",
"              y K ;.w.b.(.{.{.{.{.{.{.{.{.{.{.{.{.{.{.{.{.{.{.{.{.{.{.{.{.{.E.b.8.#.K 8             ",
"              , p S ` 0.Q.{.{.{.{.{.{.{.{.{.{.{.{.{.{.{.{.{.{.{.{.{.{.{.{.{.G.0.W V p ;             ",
"                    h @.Y.{.{.{.{.{.{.{.{.{.{.{.{.{.{.{.{.{.{.{.{.{.{.{.{.{.N.@.w                   ",
"                    t T 6.t.r.t.s.M.Q.{.{.{.{.{.{.{.{.{.{.{.{.{.R.M.u.r.r.r.>.T 2                   ",
"                    1 k R ! ! ! } 0.H.{.{.{.{.{.{.{.{.{.{.{.{.{.V.0.) ! ! ! K k -                   ",
"                    X O $ $ $ $ u { m.{.{.{.{.{.{.{.{.{.{.{.{.{.j.{ 1 $ $ $ # O .                   ",
"                                4 I 9.v.v.v.v.v.v.v.v.v.v.v.v.v.1.I %                               ",
"                                : x ^ X.X.o.X.o.o.o.o.o.o.o.X.o.E x @                               ",
"                                O : 8 e e e e e e e e e e e e e 6 : X                               ",
"                                                                                                    ",
"                                                                                                    ",
"                                                                                                    "
};
